<svg width="358" height="56" viewBox="0 0 358 56" fill="none" xmlns="http://www.w3.org/2000/svg">
<rect x="1" y="0.5" width="356" height="55" rx="9.5" fill="#4589FF"/>
<rect x="1" y="0.5" width="356" height="55" rx="9.5" stroke="#4589FF"/>
<path d="M81.0444 37L79.0229 31.7891H72.4419L70.4316 37H68.5L74.9238 20.5137H76.6421L83.021 37H81.0444ZM78.4502 30.0933L76.5298 24.916C76.4849 24.7812 76.41 24.5604 76.3052 24.2534C76.2078 23.9465 76.1068 23.6283 76.002 23.2988C75.8971 22.9694 75.811 22.7036 75.7437 22.5015C75.6688 22.8084 75.5864 23.1154 75.4966 23.4224C75.4142 23.7218 75.3319 24.0026 75.2495 24.2646C75.1672 24.5192 75.096 24.7363 75.0361 24.916L73.082 30.0933H78.4502ZM89.3999 37.2246C87.8426 37.2246 86.6073 36.693 85.6938 35.6299C84.7879 34.5667 84.335 32.987 84.335 30.8906C84.335 28.7718 84.7992 27.1733 85.7275 26.0952C86.6559 25.0096 87.8913 24.4668 89.4336 24.4668C90.085 24.4668 90.654 24.5529 91.1406 24.7251C91.6273 24.8973 92.0465 25.1294 92.3984 25.4214C92.7503 25.7059 93.0461 26.0316 93.2856 26.3984H93.4204C93.3905 26.1663 93.3605 25.8481 93.3306 25.4438C93.3006 25.0396 93.2856 24.7101 93.2856 24.4556V19.5254H95.1499V37H93.645L93.3643 35.248H93.2856C93.0535 35.6149 92.7578 35.9481 92.3984 36.2476C92.0465 36.547 91.6235 36.7866 91.1294 36.9663C90.6427 37.1385 90.0662 37.2246 89.3999 37.2246ZM89.6919 35.6748C91.0096 35.6748 91.9417 35.3005 92.4883 34.5518C93.0348 33.8031 93.3081 32.6912 93.3081 31.2163V30.8794C93.3081 29.3146 93.0461 28.113 92.522 27.2744C92.0054 26.4359 91.062 26.0166 89.6919 26.0166C88.5464 26.0166 87.6891 26.4583 87.1201 27.3418C86.5511 28.2178 86.2666 29.4157 86.2666 30.9355C86.2666 32.4479 86.5474 33.6159 87.1089 34.4395C87.6779 35.263 88.5389 35.6748 89.6919 35.6748ZM103.483 37.2246C101.926 37.2246 100.69 36.693 99.7769 35.6299C98.8709 34.5667 98.418 32.987 98.418 30.8906C98.418 28.7718 98.8822 27.1733 99.8105 26.0952C100.739 25.0096 101.974 24.4668 103.517 24.4668C104.168 24.4668 104.737 24.5529 105.224 24.7251C105.71 24.8973 106.13 25.1294 106.481 25.4214C106.833 25.7059 107.129 26.0316 107.369 26.3984H107.503C107.473 26.1663 107.444 25.8481 107.414 25.4438C107.384 25.0396 107.369 24.7101 107.369 24.4556V19.5254H109.233V37H107.728L107.447 35.248H107.369C107.137 35.6149 106.841 35.9481 106.481 36.2476C106.13 36.547 105.707 36.7866 105.212 36.9663C104.726 37.1385 104.149 37.2246 103.483 37.2246ZM103.775 35.6748C105.093 35.6748 106.025 35.3005 106.571 34.5518C107.118 33.8031 107.391 32.6912 107.391 31.2163V30.8794C107.391 29.3146 107.129 28.113 106.605 27.2744C106.088 26.4359 105.145 26.0166 103.775 26.0166C102.629 26.0166 101.772 26.4583 101.203 27.3418C100.634 28.2178 100.35 29.4157 100.35 30.9355C100.35 32.4479 100.63 33.6159 101.192 34.4395C101.761 35.263 102.622 35.6748 103.775 35.6748ZM124.989 24.4668C126.449 24.4668 127.554 24.8262 128.302 25.5449C129.051 26.2562 129.425 27.4017 129.425 28.9814V37H127.583V29.105C127.583 28.0793 127.348 27.3118 126.876 26.8027C126.412 26.2936 125.697 26.0391 124.731 26.0391C123.368 26.0391 122.41 26.4246 121.856 27.1958C121.302 27.967 121.025 29.0863 121.025 30.5537V37H119.161V24.6914H120.666L120.946 26.4658H121.047C121.309 26.0316 121.643 25.6685 122.047 25.3765C122.451 25.077 122.904 24.8524 123.406 24.7026C123.907 24.5454 124.435 24.4668 124.989 24.4668ZM138.005 24.4668C139.054 24.4668 139.952 24.6989 140.701 25.1631C141.449 25.6273 142.022 26.2786 142.419 27.1172C142.816 27.9482 143.014 28.9215 143.014 30.0371V31.1938H134.513C134.535 32.6388 134.895 33.7394 135.591 34.4956C136.287 35.2518 137.268 35.6299 138.533 35.6299C139.312 35.6299 140.001 35.5588 140.6 35.4165C141.199 35.2743 141.82 35.0646 142.464 34.7876V36.4272C141.842 36.7043 141.225 36.9064 140.611 37.0337C140.004 37.161 139.286 37.2246 138.455 37.2246C137.272 37.2246 136.238 36.985 135.355 36.5059C134.479 36.0192 133.798 35.3079 133.311 34.3721C132.824 33.4362 132.581 32.2907 132.581 30.9355C132.581 29.6104 132.802 28.4648 133.244 27.499C133.693 26.5257 134.322 25.777 135.13 25.2529C135.946 24.7288 136.905 24.4668 138.005 24.4668ZM137.983 25.9941C136.987 25.9941 136.194 26.3198 135.602 26.9712C135.011 27.6226 134.659 28.5322 134.546 29.7002H141.06C141.053 28.9665 140.937 28.3226 140.712 27.7686C140.495 27.207 140.162 26.7728 139.712 26.4658C139.263 26.1514 138.687 25.9941 137.983 25.9941ZM156.199 36.9775L154.009 29.8125C153.911 29.5055 153.818 29.2061 153.728 28.9141C153.646 28.6146 153.567 28.3301 153.492 28.0605C153.425 27.7835 153.361 27.529 153.301 27.2969C153.249 27.0573 153.204 26.8514 153.167 26.6792H153.088C153.058 26.8514 153.017 27.0573 152.964 27.2969C152.912 27.529 152.848 27.7835 152.773 28.0605C152.706 28.3376 152.631 28.6296 152.549 28.9365C152.466 29.236 152.373 29.5392 152.268 29.8462L149.977 36.9775H147.877L144.485 24.6689H146.417L148.191 31.4634C148.311 31.9126 148.424 32.3581 148.528 32.7998C148.641 33.234 148.734 33.6458 148.809 34.0352C148.891 34.417 148.951 34.7502 148.989 35.0347H149.079C149.124 34.8475 149.172 34.6229 149.225 34.3608C149.285 34.0988 149.348 33.8218 149.416 33.5298C149.49 33.2303 149.569 32.9346 149.651 32.6426C149.734 32.3431 149.816 32.0623 149.898 31.8003L152.167 24.6689H154.177L156.367 31.7891C156.479 32.1484 156.588 32.5228 156.693 32.9121C156.805 33.3014 156.906 33.6795 156.996 34.0464C157.086 34.4058 157.15 34.7277 157.187 35.0122H157.277C157.307 34.7576 157.363 34.4432 157.445 34.0688C157.528 33.6945 157.621 33.2827 157.726 32.8335C157.838 32.3843 157.954 31.9276 158.074 31.4634L159.871 24.6689H161.769L158.366 36.9775H156.199ZM174.92 37.2246C173.812 37.2246 172.835 36.9963 171.989 36.5396C171.143 36.0828 170.484 35.3866 170.012 34.4507C169.541 33.5148 169.305 32.3356 169.305 30.9131C169.305 29.4232 169.552 28.2065 170.046 27.2632C170.548 26.3123 171.236 25.6086 172.112 25.1519C172.988 24.6951 173.984 24.4668 175.1 24.4668C175.714 24.4668 176.305 24.5304 176.874 24.6577C177.451 24.7775 177.922 24.931 178.289 25.1182L177.728 26.6792C177.353 26.5295 176.919 26.3947 176.425 26.2749C175.938 26.1551 175.481 26.0952 175.055 26.0952C174.201 26.0952 173.49 26.2786 172.921 26.6455C172.359 27.0124 171.936 27.5514 171.652 28.2627C171.375 28.974 171.236 29.8499 171.236 30.8906C171.236 31.8864 171.371 32.7362 171.641 33.4399C171.918 34.1437 172.326 34.6828 172.865 35.0571C173.411 35.424 174.093 35.6074 174.909 35.6074C175.56 35.6074 176.148 35.54 176.672 35.4053C177.196 35.263 177.671 35.0983 178.098 34.9111V36.5732C177.686 36.7829 177.226 36.9438 176.717 37.0562C176.215 37.1685 175.616 37.2246 174.92 37.2246ZM191.631 30.8232C191.631 31.834 191.5 32.7362 191.238 33.5298C190.976 34.3234 190.598 34.9935 190.104 35.54C189.609 36.0866 189.01 36.5059 188.307 36.7979C187.61 37.0824 186.82 37.2246 185.937 37.2246C185.113 37.2246 184.357 37.0824 183.668 36.7979C182.987 36.5059 182.396 36.0866 181.894 35.54C181.4 34.9935 181.014 34.3234 180.737 33.5298C180.468 32.7362 180.333 31.834 180.333 30.8232C180.333 29.4756 180.561 28.3301 181.018 27.3867C181.475 26.4359 182.126 25.7134 182.972 25.2192C183.826 24.7176 184.84 24.4668 186.016 24.4668C187.139 24.4668 188.119 24.7176 188.958 25.2192C189.804 25.7209 190.459 26.4471 190.923 27.3979C191.395 28.3413 191.631 29.4831 191.631 30.8232ZM182.265 30.8232C182.265 31.8115 182.396 32.6688 182.658 33.395C182.92 34.1213 183.324 34.6828 183.871 35.0796C184.417 35.4764 185.121 35.6748 185.982 35.6748C186.835 35.6748 187.535 35.4764 188.082 35.0796C188.636 34.6828 189.044 34.1213 189.306 33.395C189.568 32.6688 189.699 31.8115 189.699 30.8232C189.699 29.8424 189.568 28.9964 189.306 28.2852C189.044 27.5664 188.64 27.0124 188.093 26.623C187.547 26.2337 186.839 26.0391 185.971 26.0391C184.69 26.0391 183.751 26.4621 183.152 27.3081C182.56 28.1541 182.265 29.3258 182.265 30.8232ZM200.683 24.4668C202.143 24.4668 203.247 24.8262 203.996 25.5449C204.744 26.2562 205.119 27.4017 205.119 28.9814V37H203.277V29.105C203.277 28.0793 203.041 27.3118 202.569 26.8027C202.105 26.2936 201.39 26.0391 200.424 26.0391C199.062 26.0391 198.103 26.4246 197.549 27.1958C196.995 27.967 196.718 29.0863 196.718 30.5537V37H194.854V24.6914H196.359L196.64 26.4658H196.741C197.003 26.0316 197.336 25.6685 197.74 25.3765C198.145 25.077 198.597 24.8524 199.099 24.7026C199.601 24.5454 200.129 24.4668 200.683 24.4668ZM212.935 35.6973C213.242 35.6973 213.556 35.6711 213.878 35.6187C214.2 35.5662 214.462 35.5026 214.665 35.4277V36.8765C214.447 36.9738 214.144 37.0562 213.755 37.1235C213.373 37.1909 212.999 37.2246 212.632 37.2246C211.98 37.2246 211.389 37.1123 210.857 36.8877C210.326 36.6556 209.899 36.2663 209.577 35.7197C209.263 35.1732 209.105 34.417 209.105 33.4512V26.1514H207.354V25.2417L209.117 24.5117L209.858 21.8389H210.981V24.6914H214.586V26.1514H210.981V33.395C210.981 34.1662 211.157 34.7427 211.509 35.1245C211.868 35.5063 212.344 35.6973 212.935 35.6973ZM221.762 24.4893C223.23 24.4893 224.319 24.8187 225.03 25.4775C225.742 26.1364 226.097 27.1883 226.097 28.6333V37H224.738L224.379 35.1807H224.289C223.945 35.6299 223.585 36.008 223.211 36.3149C222.837 36.6144 222.402 36.8428 221.908 37C221.422 37.1497 220.823 37.2246 220.111 37.2246C219.363 37.2246 218.696 37.0936 218.112 36.8315C217.536 36.5695 217.079 36.1727 216.742 35.6411C216.413 35.1095 216.248 34.4357 216.248 33.6196C216.248 32.3918 216.735 31.4484 217.708 30.7896C218.681 30.1307 220.164 29.7713 222.155 29.7114L224.278 29.6216V28.8691C224.278 27.806 224.049 27.061 223.593 26.6343C223.136 26.2075 222.492 25.9941 221.661 25.9941C221.017 25.9941 220.403 26.0877 219.819 26.2749C219.235 26.4621 218.681 26.6829 218.157 26.9375L217.584 25.5225C218.139 25.238 218.775 24.9946 219.494 24.7925C220.212 24.5903 220.969 24.4893 221.762 24.4893ZM224.255 30.9355L222.38 31.0142C220.845 31.0741 219.763 31.3249 219.134 31.7666C218.505 32.2083 218.191 32.8335 218.191 33.6421C218.191 34.3459 218.404 34.8662 218.831 35.2031C219.258 35.54 219.823 35.7085 220.527 35.7085C221.62 35.7085 222.515 35.4053 223.211 34.7988C223.907 34.1924 224.255 33.2827 224.255 32.0698V30.9355ZM234.868 37.2246C233.76 37.2246 232.783 36.9963 231.937 36.5396C231.091 36.0828 230.432 35.3866 229.96 34.4507C229.489 33.5148 229.253 32.3356 229.253 30.9131C229.253 29.4232 229.5 28.2065 229.994 27.2632C230.496 26.3123 231.185 25.6086 232.061 25.1519C232.937 24.6951 233.932 24.4668 235.048 24.4668C235.662 24.4668 236.253 24.5304 236.822 24.6577C237.399 24.7775 237.87 24.931 238.237 25.1182L237.676 26.6792C237.301 26.5295 236.867 26.3947 236.373 26.2749C235.886 26.1551 235.43 26.0952 235.003 26.0952C234.149 26.0952 233.438 26.2786 232.869 26.6455C232.308 27.0124 231.885 27.5514 231.6 28.2627C231.323 28.974 231.185 29.8499 231.185 30.8906C231.185 31.8864 231.319 32.7362 231.589 33.4399C231.866 34.1437 232.274 34.6828 232.813 35.0571C233.36 35.424 234.041 35.6074 234.857 35.6074C235.508 35.6074 236.096 35.54 236.62 35.4053C237.144 35.263 237.62 35.0983 238.046 34.9111V36.5732C237.635 36.7829 237.174 36.9438 236.665 37.0562C236.163 37.1685 235.564 37.2246 234.868 37.2246ZM244.942 35.6973C245.249 35.6973 245.563 35.6711 245.885 35.6187C246.207 35.5662 246.469 35.5026 246.671 35.4277V36.8765C246.454 36.9738 246.151 37.0562 245.762 37.1235C245.38 37.1909 245.006 37.2246 244.639 37.2246C243.987 37.2246 243.396 37.1123 242.864 36.8877C242.333 36.6556 241.906 36.2663 241.584 35.7197C241.27 35.1732 241.112 34.417 241.112 33.4512V26.1514H239.36V25.2417L241.124 24.5117L241.865 21.8389H242.988V24.6914H246.593V26.1514H242.988V33.395C242.988 34.1662 243.164 34.7427 243.516 35.1245C243.875 35.5063 244.35 35.6973 244.942 35.6973Z" fill="white"/>
<mask id="mask0_18907_6386" style="mask-type:alpha" maskUnits="userSpaceOnUse" x="257" y="12" width="33" height="32">
<rect x="257.5" y="12" width="32" height="32" fill="#D9D9D9"/>
</mask>
<g mask="url(#mask0_18907_6386)">
<path d="M282.829 30.6667C282.513 30.6667 282.25 30.5602 282.039 30.3473C281.828 30.1343 281.722 29.8704 281.722 29.5556V26.4445H278.611C278.296 26.4445 278.032 26.3376 277.819 26.1239C277.606 25.9102 277.5 25.6454 277.5 25.3295C277.5 25.0136 277.606 24.7501 277.819 24.5389C278.032 24.3278 278.296 24.2223 278.611 24.2223H281.722V21.1111C281.722 20.7963 281.829 20.5325 282.043 20.3195C282.256 20.1065 282.521 20 282.837 20C283.153 20 283.417 20.1065 283.628 20.3195C283.839 20.5325 283.944 20.7963 283.944 21.1111V24.2223H287.055C287.37 24.2223 287.634 24.3291 287.847 24.5428C288.06 24.7566 288.167 25.0214 288.167 25.3373C288.167 25.6532 288.06 25.9167 287.847 26.1278C287.634 26.3389 287.37 26.4445 287.055 26.4445H283.944V29.5556C283.944 29.8704 283.837 30.1343 283.624 30.3473C283.41 30.5602 283.145 30.6667 282.829 30.6667ZM269.5 27.9778C268.033 27.9778 266.815 27.4926 265.844 26.5223C264.874 25.5519 264.389 24.3334 264.389 22.8667C264.389 21.4 264.874 20.1815 265.844 19.2112C266.815 18.2408 268.033 17.7556 269.5 17.7556C270.967 17.7556 272.185 18.2408 273.155 19.2112C274.126 20.1815 274.611 21.4 274.611 22.8667C274.611 24.3334 274.126 25.5519 273.155 26.5223C272.185 27.4926 270.967 27.9778 269.5 27.9778ZM259.944 38.6667C259.63 38.6667 259.366 38.5602 259.153 38.3473C258.94 38.1343 258.833 37.8704 258.833 37.5556V35.3334C258.833 34.563 259.031 33.8612 259.428 33.2279C259.824 32.5945 260.367 32.1186 261.055 31.8C262.626 31.0815 264.08 30.5649 265.419 30.25C266.757 29.9352 268.116 29.7779 269.496 29.7779C270.876 29.7779 272.237 29.9352 273.578 30.25C274.918 30.5649 276.367 31.0815 277.922 31.8C278.611 32.1334 279.157 32.613 279.561 33.2389C279.965 33.8649 280.167 34.563 280.167 35.3334V37.5556C280.167 37.8704 280.06 38.1343 279.847 38.3473C279.634 38.5602 279.37 38.6667 279.055 38.6667H259.944ZM261.055 36.4445H277.944V35.3334C277.944 35.0149 277.865 34.7149 277.705 34.4334C277.546 34.1519 277.307 33.9408 276.989 33.8C275.552 33.0963 274.263 32.6204 273.122 32.3723C271.981 32.1241 270.774 32 269.5 32C268.226 32 267.018 32.1278 265.878 32.3834C264.737 32.6389 263.441 33.1112 261.989 33.8C261.7 33.9408 261.472 34.1519 261.305 34.4334C261.139 34.7149 261.055 35.0149 261.055 35.3334V36.4445ZM269.5 25.7556C270.322 25.7556 271.009 25.4797 271.561 24.9278C272.113 24.376 272.389 23.6889 272.389 22.8667C272.389 22.0445 272.113 21.3575 271.561 20.8056C271.009 20.2537 270.322 19.9778 269.5 19.9778C268.678 19.9778 267.991 20.2537 267.439 20.8056C266.887 21.3575 266.611 22.0445 266.611 22.8667C266.611 23.6889 266.887 24.376 267.439 24.9278C267.991 25.4797 268.678 25.7556 269.5 25.7556Z" fill="white"/>
</g>
</svg>
