<svg width="24" height="25" viewBox="0 0 24 25" fill="none" xmlns="http://www.w3.org/2000/svg">
<mask id="mask0_19393_9705" style="mask-type:alpha" maskUnits="userSpaceOnUse" x="0" y="0" width="24" height="25">
<rect y="0.96582" width="24" height="24" fill="#D9D9D9"/>
</mask>
<g mask="url(#mask0_19393_9705)">
<path d="M11.3 15.2658L8.69998 12.6658C8.38331 12.3492 8.31248 11.9867 8.48748 11.5783C8.66248 11.17 8.97498 10.9658 9.42498 10.9658H14.575C15.025 10.9658 15.3375 11.17 15.5125 11.5783C15.6875 11.9867 15.6166 12.3492 15.3 12.6658L12.7 15.2658C12.6 15.3658 12.4916 15.4408 12.375 15.4908C12.2583 15.5408 12.1333 15.5658 12 15.5658C11.8666 15.5658 11.7416 15.5408 11.625 15.4908C11.5083 15.4408 11.4 15.3658 11.3 15.2658Z" fill="#4589FF"/>
</g>
</svg>
