<svg width="16" height="12" viewBox="0 0 16 12" fill="none" xmlns="http://www.w3.org/2000/svg">
<path d="M5.55021 9.15L14.0252 0.675C14.2252 0.475 14.4627 0.375 14.7377 0.375C15.0127 0.375 15.2502 0.475 15.4502 0.675C15.6502 0.875 15.7502 1.1125 15.7502 1.3875C15.7502 1.6625 15.6502 1.9 15.4502 2.1L6.25021 11.3C6.05021 11.5 5.81687 11.6 5.55021 11.6C5.28354 11.6 5.05021 11.5 4.85021 11.3L0.550207 7C0.350207 6.8 0.254374 6.5625 0.262707 6.2875C0.27104 6.0125 0.375207 5.775 0.575207 5.575C0.775207 5.375 1.01271 5.275 1.28771 5.275C1.56271 5.275 1.80021 5.375 2.00021 5.575L5.55021 9.15Z" fill="white"/>
</svg>
