<svg width="138" height="51" viewBox="0 0 138 51" fill="none" xmlns="http://www.w3.org/2000/svg">
<rect x="0.5" y="0.5" width="137" height="50" rx="9.5" fill="#4589FF"/>
<rect x="0.5" y="0.5" width="137" height="50" rx="9.5" stroke="#4589FF"/>
<path d="M22.5444 34.5L20.5229 29.2891H13.9419L11.9316 34.5H10L16.4238 18.0137H18.1421L24.521 34.5H22.5444ZM19.9502 27.5933L18.0298 22.416C17.9849 22.2812 17.91 22.0604 17.8052 21.7534C17.7078 21.4465 17.6068 21.1283 17.502 20.7988C17.3971 20.4694 17.311 20.2036 17.2437 20.0015C17.1688 20.3084 17.0864 20.6154 16.9966 20.9224C16.9142 21.2218 16.8319 21.5026 16.7495 21.7646C16.6672 22.0192 16.596 22.2363 16.5361 22.416L14.582 27.5933H19.9502ZM30.8999 34.7246C29.3426 34.7246 28.1073 34.193 27.1938 33.1299C26.2879 32.0667 25.835 30.487 25.835 28.3906C25.835 26.2718 26.2992 24.6733 27.2275 23.5952C28.1559 22.5096 29.3913 21.9668 30.9336 21.9668C31.585 21.9668 32.154 22.0529 32.6406 22.2251C33.1273 22.3973 33.5465 22.6294 33.8984 22.9214C34.2503 23.2059 34.5461 23.5316 34.7856 23.8984H34.9204C34.8905 23.6663 34.8605 23.3481 34.8306 22.9438C34.8006 22.5396 34.7856 22.2101 34.7856 21.9556V17.0254H36.6499V34.5H35.145L34.8643 32.748H34.7856C34.5535 33.1149 34.2578 33.4481 33.8984 33.7476C33.5465 34.047 33.1235 34.2866 32.6294 34.4663C32.1427 34.6385 31.5662 34.7246 30.8999 34.7246ZM31.1919 33.1748C32.5096 33.1748 33.4417 32.8005 33.9883 32.0518C34.5348 31.3031 34.8081 30.1912 34.8081 28.7163V28.3794C34.8081 26.8146 34.5461 25.613 34.022 24.7744C33.5054 23.9359 32.562 23.5166 31.1919 23.5166C30.0464 23.5166 29.1891 23.9583 28.6201 24.8418C28.0511 25.7178 27.7666 26.9157 27.7666 28.4355C27.7666 29.9479 28.0474 31.1159 28.6089 31.9395C29.1779 32.763 30.0389 33.1748 31.1919 33.1748ZM44.9829 34.7246C43.4256 34.7246 42.1903 34.193 41.2769 33.1299C40.3709 32.0667 39.918 30.487 39.918 28.3906C39.918 26.2718 40.3822 24.6733 41.3105 23.5952C42.2389 22.5096 43.4743 21.9668 45.0166 21.9668C45.668 21.9668 46.237 22.0529 46.7236 22.2251C47.2103 22.3973 47.6296 22.6294 47.9814 22.9214C48.3333 23.2059 48.6291 23.5316 48.8687 23.8984H49.0034C48.9735 23.6663 48.9435 23.3481 48.9136 22.9438C48.8836 22.5396 48.8687 22.2101 48.8687 21.9556V17.0254H50.7329V34.5H49.228L48.9473 32.748H48.8687C48.6366 33.1149 48.3408 33.4481 47.9814 33.7476C47.6296 34.047 47.2065 34.2866 46.7124 34.4663C46.2257 34.6385 45.6493 34.7246 44.9829 34.7246ZM45.2749 33.1748C46.5926 33.1748 47.5247 32.8005 48.0713 32.0518C48.6178 31.3031 48.8911 30.1912 48.8911 28.7163V28.3794C48.8911 26.8146 48.6291 25.613 48.105 24.7744C47.5884 23.9359 46.645 23.5166 45.2749 23.5166C44.1294 23.5166 43.2721 23.9583 42.7031 24.8418C42.1341 25.7178 41.8496 26.9157 41.8496 28.4355C41.8496 29.9479 42.1304 31.1159 42.6919 31.9395C43.2609 32.763 44.1219 33.1748 45.2749 33.1748ZM64.6362 33.1973C64.9432 33.1973 65.2576 33.1711 65.5796 33.1187C65.9015 33.0662 66.1636 33.0026 66.3657 32.9277V34.3765C66.1486 34.4738 65.8454 34.5562 65.4561 34.6235C65.0742 34.6909 64.6999 34.7246 64.333 34.7246C63.6816 34.7246 63.0902 34.6123 62.5586 34.3877C62.027 34.1556 61.6003 33.7663 61.2783 33.2197C60.9639 32.6732 60.8066 31.917 60.8066 30.9512V23.6514H59.0547V22.7417L60.8179 22.0117L61.5591 19.3389H62.6821V22.1914H66.2871V23.6514H62.6821V30.895C62.6821 31.6662 62.8581 32.2427 63.21 32.6245C63.5693 33.0063 64.0448 33.1973 64.6362 33.1973ZM73.4634 21.9893C74.9308 21.9893 76.0202 22.3187 76.7314 22.9775C77.4427 23.6364 77.7983 24.6883 77.7983 26.1333V34.5H76.4395L76.0801 32.6807H75.9902C75.6458 33.1299 75.2865 33.508 74.9121 33.8149C74.5378 34.1144 74.1035 34.3428 73.6094 34.5C73.1227 34.6497 72.5238 34.7246 71.8125 34.7246C71.0638 34.7246 70.3975 34.5936 69.8135 34.3315C69.237 34.0695 68.7803 33.6727 68.4434 33.1411C68.1139 32.6095 67.9492 31.9357 67.9492 31.1196C67.9492 29.8918 68.4359 28.9484 69.4092 28.2896C70.3825 27.6307 71.8649 27.2713 73.8564 27.2114L75.979 27.1216V26.3691C75.979 25.306 75.7507 24.561 75.2939 24.1343C74.8372 23.7075 74.1934 23.4941 73.3623 23.4941C72.7184 23.4941 72.1045 23.5877 71.5205 23.7749C70.9365 23.9621 70.3825 24.1829 69.8584 24.4375L69.2856 23.0225C69.8397 22.738 70.4761 22.4946 71.1948 22.2925C71.9136 22.0903 72.6698 21.9893 73.4634 21.9893ZM75.9565 28.4355L74.0811 28.5142C72.5462 28.5741 71.4644 28.8249 70.8354 29.2666C70.2065 29.7083 69.8921 30.3335 69.8921 31.1421C69.8921 31.8459 70.1055 32.3662 70.5322 32.7031C70.959 33.04 71.5243 33.2085 72.228 33.2085C73.3211 33.2085 74.2158 32.9053 74.9121 32.2988C75.6084 31.6924 75.9565 30.7827 75.9565 29.5698V28.4355ZM89.6016 31.1309C89.6016 31.917 89.4032 32.5796 89.0063 33.1187C88.617 33.6502 88.0555 34.0508 87.3218 34.3203C86.5955 34.5898 85.7271 34.7246 84.7163 34.7246C83.8553 34.7246 83.1104 34.6572 82.4814 34.5225C81.8525 34.3877 81.3022 34.1968 80.8306 33.9497V32.2314C81.3322 32.4785 81.9312 32.7031 82.6274 32.9053C83.3237 33.1074 84.035 33.2085 84.7612 33.2085C85.8244 33.2085 86.5955 33.0363 87.0747 32.6919C87.5539 32.3475 87.7935 31.8796 87.7935 31.2881C87.7935 30.9512 87.6961 30.6554 87.5015 30.4009C87.3143 30.1388 86.9961 29.888 86.5469 29.6484C86.0977 29.4014 85.4762 29.1318 84.6826 28.8398C83.8965 28.5404 83.2152 28.2446 82.6387 27.9526C82.0697 27.6532 81.6279 27.29 81.3135 26.8633C81.0065 26.4365 80.853 25.8825 80.853 25.2012C80.853 24.1605 81.2723 23.3631 82.1108 22.8091C82.9569 22.2476 84.0649 21.9668 85.4351 21.9668C86.1763 21.9668 86.8688 22.0417 87.5127 22.1914C88.1641 22.3337 88.7705 22.5283 89.332 22.7754L88.7031 24.269C88.194 24.0519 87.6512 23.8685 87.0747 23.7188C86.4982 23.569 85.9105 23.4941 85.3115 23.4941C84.4505 23.4941 83.7879 23.6364 83.3237 23.9209C82.867 24.2054 82.6387 24.5947 82.6387 25.0889C82.6387 25.4707 82.7435 25.7852 82.9531 26.0322C83.1702 26.2793 83.5146 26.5114 83.9863 26.7285C84.458 26.9456 85.0794 27.2002 85.8506 27.4922C86.6217 27.7767 87.2881 28.0724 87.8496 28.3794C88.4111 28.6789 88.8416 29.0457 89.1411 29.48C89.4481 29.9067 89.6016 30.457 89.6016 31.1309ZM94.4531 17.0254V26.0996C94.4531 26.3991 94.4419 26.766 94.4194 27.2002C94.397 27.627 94.3783 28.005 94.3633 28.3345H94.4419C94.5991 28.1398 94.8275 27.8516 95.127 27.4697C95.4339 27.0879 95.6922 26.7809 95.9019 26.5488L99.9897 22.1914H102.18L97.2271 27.4473L102.539 34.5H100.293L95.9468 28.6714L94.4531 30.0415V34.5H92.6001V17.0254H94.4531Z" fill="white"/>
<path d="M120.5 18V33" stroke="white" stroke-width="2" stroke-linecap="round"/>
<path d="M128 25.6416L113 25.6416" stroke="white" stroke-width="2" stroke-linecap="round"/>
</svg>
