<svg width="312" height="49" viewBox="0 0 312 49" fill="none" xmlns="http://www.w3.org/2000/svg">
<rect x="0.5" y="1" width="311" height="47" rx="9.5" fill="white"/>
<rect x="0.5" y="1" width="311" height="47" rx="9.5" stroke="#A8A8A8"/>
<path d="M17.4091 30V18.3636H24.3864V19.6136H18.8182V23.5455H23.8636V24.7955H18.8182V30H17.4091ZM26.6179 30V21.2727H27.9588V30H26.6179ZM27.2997 19.8182C27.0384 19.8182 26.813 19.7292 26.6236 19.5511C26.438 19.3731 26.3452 19.1591 26.3452 18.9091C26.3452 18.6591 26.438 18.4451 26.6236 18.267C26.813 18.089 27.0384 18 27.2997 18C27.5611 18 27.7846 18.089 27.9702 18.267C28.1596 18.4451 28.2543 18.6591 28.2543 18.9091C28.2543 19.1591 28.1596 19.3731 27.9702 19.5511C27.7846 19.7292 27.5611 19.8182 27.2997 19.8182ZM31.7557 24.75V30H30.4148V21.2727H31.7102V22.6364H31.8239C32.0284 22.1932 32.339 21.8371 32.7557 21.5682C33.1723 21.2955 33.7102 21.1591 34.3693 21.1591C34.9602 21.1591 35.4773 21.2803 35.9205 21.5227C36.3636 21.7614 36.7083 22.125 36.9545 22.6136C37.2008 23.0985 37.3239 23.7121 37.3239 24.4545V30H35.983V24.5455C35.983 23.8598 35.8049 23.3258 35.4489 22.9432C35.0928 22.5568 34.6042 22.3636 33.983 22.3636C33.5549 22.3636 33.1723 22.4564 32.8352 22.642C32.5019 22.8277 32.2386 23.0985 32.0455 23.4545C31.8523 23.8106 31.7557 24.2424 31.7557 24.75ZM43.0696 30.1818C42.3423 30.1818 41.7003 29.9981 41.1435 29.6307C40.5866 29.2595 40.151 28.7367 39.8366 28.0625C39.5223 27.3845 39.3651 26.5833 39.3651 25.6591C39.3651 24.7424 39.5223 23.947 39.8366 23.2727C40.151 22.5985 40.5885 22.0777 41.1491 21.7102C41.7098 21.3428 42.3575 21.1591 43.0923 21.1591C43.6605 21.1591 44.1094 21.2538 44.4389 21.4432C44.7723 21.6288 45.026 21.8409 45.2003 22.0795C45.3783 22.3144 45.5166 22.5076 45.6151 22.6591H45.7287V18.3636H47.0696V30H45.7741V28.6591H45.6151C45.5166 28.8182 45.3764 29.0189 45.1946 29.2614C45.0128 29.5 44.7533 29.714 44.4162 29.9034C44.0791 30.089 43.6302 30.1818 43.0696 30.1818ZM43.2514 28.9773C43.7893 28.9773 44.2438 28.8371 44.6151 28.5568C44.9863 28.2727 45.2685 27.8807 45.4616 27.3807C45.6548 26.8769 45.7514 26.2955 45.7514 25.6364C45.7514 24.9848 45.6567 24.4148 45.4673 23.9261C45.2779 23.4337 44.9976 23.0511 44.6264 22.7784C44.2552 22.5019 43.7969 22.3636 43.2514 22.3636C42.6832 22.3636 42.2098 22.5095 41.831 22.8011C41.456 23.089 41.1738 23.4811 40.9844 23.9773C40.7988 24.4697 40.706 25.0227 40.706 25.6364C40.706 26.2576 40.8007 26.822 40.9901 27.3295C41.1832 27.8333 41.4673 28.2348 41.8423 28.5341C42.2211 28.8295 42.6908 28.9773 43.2514 28.9773ZM53.7571 19.6136V18.3636H62.4844V19.6136H58.8253V30H57.4162V19.6136H53.7571ZM65.858 30.2045C65.3049 30.2045 64.803 30.1004 64.3523 29.892C63.9015 29.6799 63.5436 29.375 63.2784 28.9773C63.0133 28.5758 62.8807 28.0909 62.8807 27.5227C62.8807 27.0227 62.9792 26.6174 63.1761 26.3068C63.3731 25.9924 63.6364 25.7462 63.9659 25.5682C64.2955 25.3902 64.6591 25.2576 65.0568 25.1705C65.4583 25.0795 65.8617 25.0076 66.267 24.9545C66.7973 24.8864 67.2273 24.8352 67.5568 24.8011C67.8902 24.7633 68.1326 24.7008 68.2841 24.6136C68.4394 24.5265 68.517 24.375 68.517 24.1591V24.1136C68.517 23.553 68.3636 23.1174 68.0568 22.8068C67.7538 22.4962 67.2936 22.3409 66.6761 22.3409C66.036 22.3409 65.5341 22.4811 65.1705 22.7614C64.8068 23.0417 64.5511 23.3409 64.4034 23.6591L63.1307 23.2045C63.358 22.6742 63.661 22.2614 64.0398 21.9659C64.4223 21.6667 64.839 21.4583 65.2898 21.3409C65.7443 21.2197 66.1913 21.1591 66.6307 21.1591C66.911 21.1591 67.233 21.1932 67.5966 21.2614C67.964 21.3258 68.3182 21.4602 68.6591 21.6648C69.0038 21.8693 69.2898 22.178 69.517 22.5909C69.7443 23.0038 69.858 23.5568 69.858 24.25V30H68.517V28.8182H68.4489C68.358 29.0076 68.2064 29.2102 67.9943 29.4261C67.7822 29.642 67.5 29.8258 67.1477 29.9773C66.7955 30.1288 66.3655 30.2045 65.858 30.2045ZM66.0625 29C66.5928 29 67.0398 28.8958 67.4034 28.6875C67.7708 28.4792 68.0473 28.2102 68.233 27.8807C68.4223 27.5511 68.517 27.2045 68.517 26.8409V25.6136C68.4602 25.6818 68.3352 25.7443 68.142 25.8011C67.9527 25.8542 67.733 25.9015 67.483 25.9432C67.2367 25.9811 66.9962 26.0152 66.7614 26.0455C66.5303 26.072 66.3428 26.0947 66.1989 26.1136C65.8504 26.1591 65.5246 26.233 65.2216 26.3352C64.9223 26.4337 64.6799 26.5833 64.4943 26.7841C64.3125 26.9811 64.2216 27.25 64.2216 27.5909C64.2216 28.0568 64.3939 28.4091 64.7386 28.6477C65.0871 28.8826 65.5284 29 66.0625 29ZM78.4872 23.2273L77.2827 23.5682C77.2069 23.3674 77.0952 23.1723 76.9474 22.983C76.8035 22.7898 76.6065 22.6307 76.3565 22.5057C76.1065 22.3807 75.7865 22.3182 75.3963 22.3182C74.8622 22.3182 74.4171 22.4413 74.0611 22.6875C73.7088 22.9299 73.5327 23.2386 73.5327 23.6136C73.5327 23.947 73.6539 24.2102 73.8963 24.4034C74.1387 24.5966 74.5175 24.7576 75.0327 24.8864L76.3281 25.2045C77.1084 25.3939 77.6899 25.6837 78.0724 26.0739C78.455 26.4602 78.6463 26.9583 78.6463 27.5682C78.6463 28.0682 78.5024 28.5152 78.2145 28.9091C77.9304 29.303 77.5327 29.6136 77.0213 29.8409C76.5099 30.0682 75.9152 30.1818 75.2372 30.1818C74.3471 30.1818 73.6103 29.9886 73.027 29.6023C72.4437 29.2159 72.0743 28.6515 71.919 27.9091L73.1918 27.5909C73.313 28.0606 73.5421 28.4129 73.8793 28.6477C74.2202 28.8826 74.6652 29 75.2145 29C75.8395 29 76.3357 28.8674 76.7031 28.6023C77.0743 28.3333 77.2599 28.0114 77.2599 27.6364C77.2599 27.3333 77.1539 27.0795 76.9418 26.875C76.7296 26.6667 76.4039 26.5114 75.9645 26.4091L74.5099 26.0682C73.7107 25.8788 73.1236 25.5852 72.7486 25.1875C72.3774 24.786 72.1918 24.2841 72.1918 23.6818C72.1918 23.1894 72.33 22.7538 72.6065 22.375C72.8868 21.9962 73.2675 21.6989 73.7486 21.483C74.2334 21.267 74.7827 21.1591 75.3963 21.1591C76.2599 21.1591 76.938 21.3485 77.4304 21.7273C77.9266 22.1061 78.2789 22.6061 78.4872 23.2273ZM81.9148 26.8182L81.892 25.1591H82.1648L85.983 21.2727H87.642L83.5739 25.3864H83.4602L81.9148 26.8182ZM80.6648 30V18.3636H82.0057V30H80.6648ZM86.2102 30L82.8011 25.6818L83.7557 24.75L87.9148 30H86.2102Z" fill="#D1D1D1"/>
<path d="M248 9V40" stroke="#D1D1D1"/>
<mask id="mask0_19529_12785" style="mask-type:alpha" maskUnits="userSpaceOnUse" x="264" y="8" width="32" height="33">
<rect x="264" y="8.5" width="32" height="32" fill="#D9D9D9"/>
</mask>
<g mask="url(#mask0_19529_12785)">
<path d="M277.712 28.7137C275.895 28.7137 274.357 28.0843 273.098 26.8256C271.839 25.5669 271.21 24.029 271.21 22.2118C271.21 20.3946 271.839 18.8567 273.098 17.598C274.357 16.3393 275.895 15.71 277.712 15.71C279.529 15.71 281.067 16.3393 282.326 17.598C283.584 18.8567 284.214 20.3946 284.214 22.2118C284.214 22.9454 284.097 23.6372 283.864 24.2874C283.63 24.9376 283.313 25.5127 282.913 26.0129L288.515 31.6145C288.698 31.7979 288.79 32.0313 288.79 32.3147C288.79 32.5981 288.698 32.8315 288.515 33.0149C288.331 33.1983 288.098 33.29 287.815 33.29C287.531 33.29 287.298 33.1983 287.114 33.0149L281.513 27.4133C281.013 27.8134 280.438 28.1302 279.787 28.3636C279.137 28.597 278.445 28.7137 277.712 28.7137ZM277.712 26.7131C278.962 26.7131 280.025 26.2755 280.9 25.4002C281.775 24.525 282.213 23.4622 282.213 22.2118C282.213 20.9615 281.775 19.8987 280.9 19.0234C280.025 18.1482 278.962 17.7105 277.712 17.7105C276.461 17.7105 275.399 18.1482 274.523 19.0234C273.648 19.8987 273.211 20.9615 273.211 22.2118C273.211 23.4622 273.648 24.525 274.523 25.4002C275.399 26.2755 276.461 26.7131 277.712 26.7131Z" fill="#42526E"/>
</g>
</svg>
