<svg width="22" height="24" viewBox="0 0 22 24" fill="none" xmlns="http://www.w3.org/2000/svg">
<path d="M11 19.2C9.87995 19.2 8.80995 19.375 7.78995 19.725C6.76995 20.075 5.83995 20.6 4.99995 21.3V21.6H17V21.3C16.16 20.6 15.23 20.075 14.21 19.725C13.19 19.375 12.12 19.2 11 19.2ZM2.59995 20.22C3.67995 19.16 4.93495 18.325 6.36495 17.715C7.79495 17.105 9.33995 16.8 11 16.8C12.66 16.8 14.205 17.105 15.635 17.715C17.065 18.325 18.32 19.16 19.4 20.22V4.8H2.59995V20.22ZM11 14.4C9.83995 14.4 8.84995 13.99 8.02995 13.17C7.20995 12.35 6.79995 11.36 6.79995 10.2C6.79995 9.04 7.20995 8.05 8.02995 7.23C8.84995 6.41 9.83995 6 11 6C12.16 6 13.15 6.41 13.97 7.23C14.79 8.05 15.2 9.04 15.2 10.2C15.2 11.36 14.79 12.35 13.97 13.17C13.15 13.99 12.16 14.4 11 14.4ZM11 12C11.5 12 11.925 11.825 12.275 11.475C12.625 11.125 12.8 10.7 12.8 10.2C12.8 9.7 12.625 9.275 12.275 8.925C11.925 8.575 11.5 8.4 11 8.4C10.5 8.4 10.075 8.575 9.72495 8.925C9.37495 9.275 9.19995 9.7 9.19995 10.2C9.19995 10.7 9.37495 11.125 9.72495 11.475C10.075 11.825 10.5 12 11 12ZM2.59995 24C1.93995 24 1.37495 23.765 0.904951 23.295C0.434951 22.825 0.199951 22.26 0.199951 21.6V4.8C0.199951 4.14 0.434951 3.575 0.904951 3.105C1.37495 2.635 1.93995 2.4 2.59995 2.4H3.79995V1.2C3.79995 0.537258 4.33721 0 4.99995 0C5.66269 0 6.19995 0.537258 6.19995 1.2V2.4H15.8V1.2C15.8 0.537258 16.3372 0 17 0C17.6627 0 18.2 0.537259 18.2 1.2V2.4H19.4C20.06 2.4 20.625 2.635 21.095 3.105C21.565 3.575 21.8 4.14 21.8 4.8V21.6C21.8 22.26 21.565 22.825 21.095 23.295C20.625 23.765 20.06 24 19.4 24H2.59995Z" fill="#42526E"/>
</svg>
