<svg width="174" height="60" viewBox="0 0 174 60" fill="none" xmlns="http://www.w3.org/2000/svg">
<rect width="174" height="60" rx="10" fill="#4589FF"/>
<path d="M19.2651 24.0298C18.3592 24.0298 17.5431 24.187 16.8169 24.5015C16.0981 24.8084 15.4842 25.2576 14.9751 25.8491C14.4735 26.4331 14.0879 27.1406 13.8184 27.9717C13.5488 28.8027 13.4141 29.7386 13.4141 30.7793C13.4141 32.1569 13.6274 33.3548 14.0542 34.373C14.4884 35.3838 15.1323 36.1662 15.9858 36.7202C16.8468 37.2743 17.9212 37.5513 19.209 37.5513C19.9427 37.5513 20.6315 37.4914 21.2754 37.3716C21.9268 37.2443 22.5594 37.0871 23.1733 36.8999V38.562C22.5744 38.7866 21.9455 38.9513 21.2866 39.0562C20.6278 39.1685 19.8454 39.2246 18.9395 39.2246C17.2699 39.2246 15.8735 38.8802 14.7505 38.1914C13.6349 37.4951 12.7964 36.5143 12.2349 35.249C11.6808 33.9837 11.4038 32.4901 11.4038 30.7681C11.4038 29.5252 11.576 28.391 11.9204 27.3652C12.2723 26.332 12.7814 25.4411 13.4478 24.6924C14.1216 23.9437 14.9451 23.3672 15.9185 22.9629C16.8993 22.5511 18.0223 22.3452 19.2876 22.3452C20.1187 22.3452 20.9198 22.4276 21.6909 22.5923C22.4621 22.757 23.1584 22.9928 23.7798 23.2998L23.0161 24.917C22.492 24.6774 21.9155 24.4715 21.2866 24.2993C20.6652 24.1196 19.9914 24.0298 19.2651 24.0298ZM32.0454 26.4668C32.2925 26.4668 32.5508 26.4818 32.8203 26.5117C33.0898 26.5342 33.3294 26.5679 33.5391 26.6128L33.3032 28.3423C33.1011 28.2899 32.8765 28.2487 32.6294 28.2188C32.3823 28.1888 32.1502 28.1738 31.9331 28.1738C31.439 28.1738 30.971 28.2749 30.5293 28.4771C30.0951 28.6717 29.7132 28.9562 29.3838 29.3306C29.0544 29.6974 28.7961 30.1429 28.6089 30.667C28.4217 31.1836 28.3281 31.7601 28.3281 32.3965V39H26.4526V26.6914H28.0024L28.2046 28.96H28.2832C28.5378 28.5033 28.8447 28.0877 29.2041 27.7134C29.5635 27.3315 29.979 27.0283 30.4507 26.8037C30.9299 26.5791 31.4614 26.4668 32.0454 26.4668ZM40.603 26.4668C41.6512 26.4668 42.5496 26.6989 43.2983 27.1631C44.047 27.6273 44.6198 28.2786 45.0166 29.1172C45.4134 29.9482 45.6118 30.9215 45.6118 32.0371V33.1938H37.1104C37.1328 34.6388 37.4922 35.7394 38.1885 36.4956C38.8848 37.2518 39.8656 37.6299 41.1309 37.6299C41.9095 37.6299 42.5983 37.5588 43.1973 37.4165C43.7962 37.2743 44.4176 37.0646 45.0615 36.7876V38.4272C44.4401 38.7043 43.8224 38.9064 43.2085 39.0337C42.6021 39.161 41.8833 39.2246 41.0522 39.2246C39.8693 39.2246 38.8361 38.985 37.9526 38.5059C37.0767 38.0192 36.3953 37.3079 35.9087 36.3721C35.422 35.4362 35.1787 34.2907 35.1787 32.9355C35.1787 31.6104 35.3996 30.4648 35.8413 29.499C36.2905 28.5257 36.9194 27.777 37.728 27.2529C38.5441 26.7288 39.5024 26.4668 40.603 26.4668ZM40.5806 27.9941C39.5848 27.9941 38.7912 28.3198 38.1997 28.9712C37.6082 29.6226 37.2563 30.5322 37.144 31.7002H43.6577C43.6502 30.9665 43.5342 30.3226 43.3096 29.7686C43.0924 29.207 42.7593 28.7728 42.3101 28.4658C41.8608 28.1514 41.2843 27.9941 40.5806 27.9941ZM53.3833 26.4893C54.8507 26.4893 55.9401 26.8187 56.6514 27.4775C57.3626 28.1364 57.7183 29.1883 57.7183 30.6333V39H56.3594L56 37.1807H55.9102C55.5658 37.6299 55.2064 38.008 54.832 38.3149C54.4577 38.6144 54.0234 38.8428 53.5293 39C53.0426 39.1497 52.4437 39.2246 51.7324 39.2246C50.9837 39.2246 50.3174 39.0936 49.7334 38.8315C49.1569 38.5695 48.7002 38.1727 48.3633 37.6411C48.0339 37.1095 47.8691 36.4357 47.8691 35.6196C47.8691 34.3918 48.3558 33.4484 49.3291 32.7896C50.3024 32.1307 51.7848 31.7713 53.7764 31.7114L55.8989 31.6216V30.8691C55.8989 29.806 55.6706 29.061 55.2139 28.6343C54.7572 28.2075 54.1133 27.9941 53.2822 27.9941C52.6383 27.9941 52.0244 28.0877 51.4404 28.2749C50.8564 28.4621 50.3024 28.6829 49.7783 28.9375L49.2056 27.5225C49.7596 27.238 50.396 26.9946 51.1147 26.7925C51.8335 26.5903 52.5897 26.4893 53.3833 26.4893ZM55.8765 32.9355L54.001 33.0142C52.4661 33.0741 51.3843 33.3249 50.7554 33.7666C50.1265 34.2083 49.812 34.8335 49.812 35.6421C49.812 36.3459 50.0254 36.8662 50.4521 37.2031C50.8789 37.54 51.4442 37.7085 52.1479 37.7085C53.241 37.7085 54.1357 37.4053 54.832 36.7988C55.5283 36.1924 55.8765 35.2827 55.8765 34.0698V32.9355ZM65.5347 37.6973C65.8416 37.6973 66.1561 37.6711 66.478 37.6187C66.8 37.5662 67.062 37.5026 67.2642 37.4277V38.8765C67.047 38.9738 66.7438 39.0562 66.3545 39.1235C65.9727 39.1909 65.5983 39.2246 65.2314 39.2246C64.5801 39.2246 63.9886 39.1123 63.457 38.8877C62.9255 38.6556 62.4987 38.2663 62.1768 37.7197C61.8623 37.1732 61.7051 36.417 61.7051 35.4512V28.1514H59.9531V27.2417L61.7163 26.5117L62.4575 23.8389H63.5806V26.6914H67.1855V28.1514H63.5806V35.395C63.5806 36.1662 63.7565 36.7427 64.1084 37.1245C64.4678 37.5063 64.9432 37.6973 65.5347 37.6973ZM74.4966 26.4668C75.5448 26.4668 76.4432 26.6989 77.1919 27.1631C77.9406 27.6273 78.5133 28.2786 78.9102 29.1172C79.307 29.9482 79.5054 30.9215 79.5054 32.0371V33.1938H71.0039C71.0264 34.6388 71.3857 35.7394 72.082 36.4956C72.7783 37.2518 73.7591 37.6299 75.0244 37.6299C75.8031 37.6299 76.4919 37.5588 77.0908 37.4165C77.6898 37.2743 78.3112 37.0646 78.9551 36.7876V38.4272C78.3337 38.7043 77.716 38.9064 77.1021 39.0337C76.4956 39.161 75.7769 39.2246 74.9458 39.2246C73.7629 39.2246 72.7297 38.985 71.8462 38.5059C70.9702 38.0192 70.2889 37.3079 69.8022 36.3721C69.3156 35.4362 69.0723 34.2907 69.0723 32.9355C69.0723 31.6104 69.2931 30.4648 69.7349 29.499C70.1841 28.5257 70.813 27.777 71.6216 27.2529C72.4377 26.7288 73.396 26.4668 74.4966 26.4668ZM74.4741 27.9941C73.4784 27.9941 72.6847 28.3198 72.0933 28.9712C71.5018 29.6226 71.1499 30.5322 71.0376 31.7002H77.5513C77.5438 30.9665 77.4277 30.3226 77.2031 29.7686C76.986 29.207 76.6528 28.7728 76.2036 28.4658C75.7544 28.1514 75.1779 27.9941 74.4741 27.9941ZM93.9702 39H92.0498V24.2656H86.8838V22.5811H99.1138V24.2656H93.9702V39ZM105.919 26.4893C107.387 26.4893 108.476 26.8187 109.188 27.4775C109.899 28.1364 110.254 29.1883 110.254 30.6333V39H108.896L108.536 37.1807H108.446C108.102 37.6299 107.743 38.008 107.368 38.3149C106.994 38.6144 106.56 38.8428 106.065 39C105.579 39.1497 104.98 39.2246 104.269 39.2246C103.52 39.2246 102.854 39.0936 102.27 38.8315C101.693 38.5695 101.236 38.1727 100.899 37.6411C100.57 37.1095 100.405 36.4357 100.405 35.6196C100.405 34.3918 100.892 33.4484 101.865 32.7896C102.839 32.1307 104.321 31.7713 106.312 31.7114L108.435 31.6216V30.8691C108.435 29.806 108.207 29.061 107.75 28.6343C107.293 28.2075 106.649 27.9941 105.818 27.9941C105.174 27.9941 104.561 28.0877 103.977 28.2749C103.393 28.4621 102.839 28.6829 102.314 28.9375L101.742 27.5225C102.296 27.238 102.932 26.9946 103.651 26.7925C104.37 26.5903 105.126 26.4893 105.919 26.4893ZM108.413 32.9355L106.537 33.0142C105.002 33.0741 103.92 33.3249 103.292 33.7666C102.663 34.2083 102.348 34.8335 102.348 35.6421C102.348 36.3459 102.562 36.8662 102.988 37.2031C103.415 37.54 103.98 37.7085 104.684 37.7085C105.777 37.7085 106.672 37.4053 107.368 36.7988C108.064 36.1924 108.413 35.2827 108.413 34.0698V32.9355ZM122.058 35.6309C122.058 36.417 121.859 37.0796 121.462 37.6187C121.073 38.1502 120.512 38.5508 119.778 38.8203C119.052 39.0898 118.183 39.2246 117.172 39.2246C116.311 39.2246 115.566 39.1572 114.938 39.0225C114.309 38.8877 113.758 38.6968 113.287 38.4497V36.7314C113.788 36.9785 114.387 37.2031 115.083 37.4053C115.78 37.6074 116.491 37.7085 117.217 37.7085C118.28 37.7085 119.052 37.5363 119.531 37.1919C120.01 36.8475 120.25 36.3796 120.25 35.7881C120.25 35.4512 120.152 35.1554 119.958 34.9009C119.77 34.6388 119.452 34.388 119.003 34.1484C118.554 33.9014 117.932 33.6318 117.139 33.3398C116.353 33.0404 115.671 32.7446 115.095 32.4526C114.526 32.1532 114.084 31.79 113.77 31.3633C113.463 30.9365 113.309 30.3825 113.309 29.7012C113.309 28.6605 113.728 27.8631 114.567 27.3091C115.413 26.7476 116.521 26.4668 117.891 26.4668C118.632 26.4668 119.325 26.5417 119.969 26.6914C120.62 26.8337 121.227 27.0283 121.788 27.2754L121.159 28.769C120.65 28.5519 120.107 28.3685 119.531 28.2188C118.954 28.069 118.367 27.9941 117.768 27.9941C116.907 27.9941 116.244 28.1364 115.78 28.4209C115.323 28.7054 115.095 29.0947 115.095 29.5889C115.095 29.9707 115.2 30.2852 115.409 30.5322C115.626 30.7793 115.971 31.0114 116.442 31.2285C116.914 31.4456 117.535 31.7002 118.307 31.9922C119.078 32.2767 119.744 32.5724 120.306 32.8794C120.867 33.1789 121.298 33.5457 121.597 33.98C121.904 34.4067 122.058 34.957 122.058 35.6309ZM126.909 21.5254V30.5996C126.909 30.8991 126.898 31.266 126.875 31.7002C126.853 32.127 126.834 32.505 126.819 32.8345H126.898C127.055 32.6398 127.284 32.3516 127.583 31.9697C127.89 31.5879 128.148 31.2809 128.358 31.0488L132.446 26.6914H134.636L129.683 31.9473L134.995 39H132.749L128.403 33.1714L126.909 34.5415V39H125.056V21.5254H126.909Z" fill="white"/>
<mask id="mask0_70_782" style="mask-type:alpha" maskUnits="userSpaceOnUse" x="140" y="18" width="24" height="24">
<rect x="140" y="18" width="24" height="24" fill="#D9D9D9"/>
</mask>
<g mask="url(#mask0_70_782)">
<path d="M149.55 33.15L158.025 24.675C158.225 24.475 158.463 24.375 158.738 24.375C159.013 24.375 159.25 24.475 159.45 24.675C159.65 24.875 159.75 25.1125 159.75 25.3875C159.75 25.6625 159.65 25.9 159.45 26.1L150.25 35.3C150.05 35.5 149.817 35.6 149.55 35.6C149.284 35.6 149.05 35.5 148.85 35.3L144.55 31C144.35 30.8 144.254 30.5625 144.263 30.2875C144.271 30.0125 144.375 29.775 144.575 29.575C144.775 29.375 145.013 29.275 145.288 29.275C145.563 29.275 145.8 29.375 146 29.575L149.55 33.15Z" fill="white"/>
</g>
</svg>
