<svg width="315" height="48" viewBox="0 0 315 48" fill="none" xmlns="http://www.w3.org/2000/svg">
<path d="M15.0825 33H12.8813L3.93066 19.209H3.84082C3.86328 19.5758 3.88949 19.9951 3.91943 20.4668C3.94938 20.931 3.97184 21.4289 3.98682 21.9604C4.00928 22.4845 4.02051 23.0199 4.02051 23.5664V33H2.24609V16.5811H4.43604L13.353 30.3271H13.4316C13.4167 30.0651 13.3979 29.6945 13.3755 29.2153C13.353 28.7287 13.3306 28.2083 13.3081 27.6543C13.2931 27.0928 13.2856 26.5724 13.2856 26.0933V16.5811H15.0825V33ZM29.8955 26.8232C29.8955 27.834 29.7645 28.7362 29.5024 29.5298C29.2404 30.3234 28.8623 30.9935 28.3682 31.54C27.874 32.0866 27.2751 32.5059 26.5713 32.7979C25.875 33.0824 25.0851 33.2246 24.2017 33.2246C23.3781 33.2246 22.6219 33.0824 21.9331 32.7979C21.2518 32.5059 20.6603 32.0866 20.1587 31.54C19.6646 30.9935 19.279 30.3234 19.002 29.5298C18.7324 28.7362 18.5977 27.834 18.5977 26.8232C18.5977 25.4756 18.826 24.3301 19.2827 23.3867C19.7394 22.4359 20.3908 21.7134 21.2368 21.2192C22.0903 20.7176 23.1048 20.4668 24.2803 20.4668C25.4033 20.4668 26.3841 20.7176 27.2227 21.2192C28.0687 21.7209 28.7238 22.4471 29.188 23.3979C29.6597 24.3413 29.8955 25.4831 29.8955 26.8232ZM20.5293 26.8232C20.5293 27.8115 20.6603 28.6688 20.9224 29.395C21.1844 30.1213 21.5887 30.6828 22.1353 31.0796C22.6818 31.4764 23.3856 31.6748 24.2466 31.6748C25.1001 31.6748 25.8001 31.4764 26.3467 31.0796C26.9007 30.6828 27.3088 30.1213 27.5708 29.395C27.8328 28.6688 27.9639 27.8115 27.9639 26.8232C27.9639 25.8424 27.8328 24.9964 27.5708 24.2852C27.3088 23.5664 26.9045 23.0124 26.3579 22.623C25.8114 22.2337 25.1038 22.0391 24.2354 22.0391C22.9551 22.0391 22.0155 22.4621 21.4165 23.3081C20.825 24.1541 20.5293 25.3258 20.5293 26.8232ZM37.0942 31.6973C37.4012 31.6973 37.7157 31.6711 38.0376 31.6187C38.3595 31.5662 38.6216 31.5026 38.8237 31.4277V32.8765C38.6066 32.9738 38.3034 33.0562 37.9141 33.1235C37.5322 33.1909 37.1579 33.2246 36.791 33.2246C36.1396 33.2246 35.5482 33.1123 35.0166 32.8877C34.485 32.6556 34.0583 32.2663 33.7363 31.7197C33.4219 31.1732 33.2646 30.417 33.2646 29.4512V22.1514H31.5127V21.2417L33.2759 20.5117L34.0171 17.8389H35.1401V20.6914H38.7451V22.1514H35.1401V29.395C35.1401 30.1662 35.3161 30.7427 35.668 31.1245C36.0273 31.5063 36.5028 31.6973 37.0942 31.6973ZM51.896 20.4893C53.3634 20.4893 54.4528 20.8187 55.1641 21.4775C55.8753 22.1364 56.231 23.1883 56.231 24.6333V33H54.8721L54.5127 31.1807H54.4229C54.0785 31.6299 53.7191 32.008 53.3447 32.3149C52.9704 32.6144 52.5361 32.8428 52.042 33C51.5553 33.1497 50.9564 33.2246 50.2451 33.2246C49.4964 33.2246 48.8301 33.0936 48.2461 32.8315C47.6696 32.5695 47.2129 32.1727 46.876 31.6411C46.5465 31.1095 46.3818 30.4357 46.3818 29.6196C46.3818 28.3918 46.8685 27.4484 47.8418 26.7896C48.8151 26.1307 50.2975 25.7713 52.2891 25.7114L54.4116 25.6216V24.8691C54.4116 23.806 54.1833 23.061 53.7266 22.6343C53.2699 22.2075 52.626 21.9941 51.7949 21.9941C51.151 21.9941 50.5371 22.0877 49.9531 22.2749C49.3691 22.4621 48.8151 22.6829 48.291 22.9375L47.7183 21.5225C48.2723 21.238 48.9087 20.9946 49.6274 20.7925C50.3462 20.5903 51.1024 20.4893 51.896 20.4893ZM54.3892 26.9355L52.5137 27.0142C50.9788 27.0741 49.897 27.3249 49.2681 27.7666C48.6392 28.2083 48.3247 28.8335 48.3247 29.6421C48.3247 30.3459 48.5381 30.8662 48.9648 31.2031C49.3916 31.54 49.9569 31.7085 50.6606 31.7085C51.7537 31.7085 52.6484 31.4053 53.3447 30.7988C54.041 30.1924 54.3892 29.2827 54.3892 28.0698V26.9355ZM63.9575 37.3237C63.5832 37.3237 63.2537 37.2975 62.9692 37.2451C62.6847 37.1927 62.4414 37.1216 62.2393 37.0317V35.4033C62.4788 35.4782 62.7371 35.5343 63.0142 35.5718C63.2912 35.6167 63.5907 35.6392 63.9126 35.6392C64.3319 35.6392 64.7174 35.5568 65.0693 35.3921C65.4212 35.2274 65.702 34.9466 65.9116 34.5498C66.1213 34.153 66.2261 33.6064 66.2261 32.9102V16.5811H68.1465V32.7642C68.1465 33.7899 67.9743 34.6396 67.6299 35.3135C67.293 35.9873 66.8101 36.4889 66.1812 36.8184C65.5597 37.1553 64.8185 37.3237 63.9575 37.3237ZM82.8359 26.8232C82.8359 27.834 82.7049 28.7362 82.4429 29.5298C82.1808 30.3234 81.8027 30.9935 81.3086 31.54C80.8145 32.0866 80.2155 32.5059 79.5117 32.7979C78.8154 33.0824 78.0256 33.2246 77.1421 33.2246C76.3185 33.2246 75.5623 33.0824 74.8735 32.7979C74.1922 32.5059 73.6007 32.0866 73.0991 31.54C72.605 30.9935 72.2194 30.3234 71.9424 29.5298C71.6729 28.7362 71.5381 27.834 71.5381 26.8232C71.5381 25.4756 71.7664 24.3301 72.2231 23.3867C72.6799 22.4359 73.3312 21.7134 74.1772 21.2192C75.0308 20.7176 76.0452 20.4668 77.2207 20.4668C78.3438 20.4668 79.3245 20.7176 80.1631 21.2192C81.0091 21.7209 81.6642 22.4471 82.1284 23.3979C82.6001 24.3413 82.8359 25.4831 82.8359 26.8232ZM73.4697 26.8232C73.4697 27.8115 73.6007 28.6688 73.8628 29.395C74.1248 30.1213 74.5291 30.6828 75.0757 31.0796C75.6222 31.4764 76.326 31.6748 77.187 31.6748C78.0405 31.6748 78.7406 31.4764 79.2871 31.0796C79.8411 30.6828 80.2492 30.1213 80.5112 29.395C80.7733 28.6688 80.9043 27.8115 80.9043 26.8232C80.9043 25.8424 80.7733 24.9964 80.5112 24.2852C80.2492 23.5664 79.8449 23.0124 79.2983 22.623C78.7518 22.2337 78.0443 22.0391 77.1758 22.0391C75.8955 22.0391 74.9559 22.4621 74.3569 23.3081C73.7655 24.1541 73.4697 25.3258 73.4697 26.8232ZM87.9233 20.6914V33H86.0591V20.6914H87.9233ZM87.0137 16.0869C87.3206 16.0869 87.5827 16.188 87.7998 16.3901C88.0244 16.5848 88.1367 16.8918 88.1367 17.311C88.1367 17.7228 88.0244 18.0298 87.7998 18.2319C87.5827 18.4341 87.3206 18.5352 87.0137 18.5352C86.6917 18.5352 86.4222 18.4341 86.2051 18.2319C85.9954 18.0298 85.8906 17.7228 85.8906 17.311C85.8906 16.8918 85.9954 16.5848 86.2051 16.3901C86.4222 16.188 86.6917 16.0869 87.0137 16.0869ZM97.7051 20.4668C99.165 20.4668 100.269 20.8262 101.018 21.5449C101.767 22.2562 102.141 23.4017 102.141 24.9814V33H100.299V25.105C100.299 24.0793 100.063 23.3118 99.5918 22.8027C99.1276 22.2936 98.4126 22.0391 97.4468 22.0391C96.0841 22.0391 95.1258 22.4246 94.5718 23.1958C94.0177 23.967 93.7407 25.0863 93.7407 26.5537V33H91.8765V20.6914H93.3813L93.6621 22.4658H93.7632C94.0252 22.0316 94.3584 21.6685 94.7627 21.3765C95.167 21.077 95.62 20.8524 96.1216 20.7026C96.6232 20.5454 97.151 20.4668 97.7051 20.4668ZM122.12 20.6914V33H120.593L120.323 31.2705H120.222C119.968 31.6973 119.638 32.0566 119.234 32.3486C118.83 32.6406 118.373 32.8577 117.864 33C117.362 33.1497 116.827 33.2246 116.258 33.2246C115.285 33.2246 114.468 33.0674 113.81 32.7529C113.151 32.4385 112.653 31.9518 112.316 31.293C111.986 30.6341 111.822 29.7881 111.822 28.7549V20.6914H113.708V28.6201C113.708 29.6458 113.941 30.4132 114.405 30.9224C114.869 31.424 115.576 31.6748 116.527 31.6748C117.441 31.6748 118.167 31.5026 118.706 31.1582C119.253 30.8138 119.646 30.3084 119.885 29.6421C120.125 28.9683 120.245 28.1447 120.245 27.1714V20.6914H122.12ZM134.024 29.6309C134.024 30.417 133.826 31.0796 133.429 31.6187C133.04 32.1502 132.478 32.5508 131.745 32.8203C131.018 33.0898 130.15 33.2246 129.139 33.2246C128.278 33.2246 127.533 33.1572 126.904 33.0225C126.275 32.8877 125.725 32.6968 125.253 32.4497V30.7314C125.755 30.9785 126.354 31.2031 127.05 31.4053C127.747 31.6074 128.458 31.7085 129.184 31.7085C130.247 31.7085 131.018 31.5363 131.498 31.1919C131.977 30.8475 132.216 30.3796 132.216 29.7881C132.216 29.4512 132.119 29.1554 131.924 28.9009C131.737 28.6388 131.419 28.388 130.97 28.1484C130.521 27.9014 129.899 27.6318 129.105 27.3398C128.319 27.0404 127.638 26.7446 127.062 26.4526C126.493 26.1532 126.051 25.79 125.736 25.3633C125.429 24.9365 125.276 24.3825 125.276 23.7012C125.276 22.6605 125.695 21.8631 126.534 21.3091C127.38 20.7476 128.488 20.4668 129.858 20.4668C130.599 20.4668 131.292 20.5417 131.936 20.6914C132.587 20.8337 133.193 21.0283 133.755 21.2754L133.126 22.769C132.617 22.5519 132.074 22.3685 131.498 22.2188C130.921 22.069 130.333 21.9941 129.734 21.9941C128.873 21.9941 128.211 22.1364 127.747 22.4209C127.29 22.7054 127.062 23.0947 127.062 23.5889C127.062 23.9707 127.166 24.2852 127.376 24.5322C127.593 24.7793 127.938 25.0114 128.409 25.2285C128.881 25.4456 129.502 25.7002 130.273 25.9922C131.045 26.2767 131.711 26.5724 132.272 26.8794C132.834 27.1789 133.264 27.5457 133.564 27.98C133.871 28.4067 134.024 28.957 134.024 29.6309ZM141.762 20.4668C142.81 20.4668 143.709 20.6989 144.458 21.1631C145.206 21.6273 145.779 22.2786 146.176 23.1172C146.573 23.9482 146.771 24.9215 146.771 26.0371V27.1938H138.27C138.292 28.6388 138.651 29.7394 139.348 30.4956C140.044 31.2518 141.025 31.6299 142.29 31.6299C143.069 31.6299 143.757 31.5588 144.356 31.4165C144.955 31.2743 145.577 31.0646 146.221 30.7876V32.4272C145.599 32.7043 144.982 32.9064 144.368 33.0337C143.761 33.161 143.042 33.2246 142.211 33.2246C141.028 33.2246 139.995 32.985 139.112 32.5059C138.236 32.0192 137.555 31.3079 137.068 30.3721C136.581 29.4362 136.338 28.2907 136.338 26.9355C136.338 25.6104 136.559 24.4648 137 23.499C137.45 22.5257 138.079 21.777 138.887 21.2529C139.703 20.7288 140.662 20.4668 141.762 20.4668ZM141.74 21.9941C140.744 21.9941 139.95 22.3198 139.359 22.9712C138.767 23.6226 138.416 24.5322 138.303 25.7002H144.817C144.809 24.9665 144.693 24.3226 144.469 23.7686C144.252 23.207 143.918 22.7728 143.469 22.4658C143.02 22.1514 142.444 21.9941 141.74 21.9941ZM155.531 20.4668C155.778 20.4668 156.036 20.4818 156.306 20.5117C156.575 20.5342 156.815 20.5679 157.024 20.6128L156.789 22.3423C156.586 22.2899 156.362 22.2487 156.115 22.2188C155.868 22.1888 155.636 22.1738 155.418 22.1738C154.924 22.1738 154.456 22.2749 154.015 22.4771C153.58 22.6717 153.199 22.9562 152.869 23.3306C152.54 23.6974 152.281 24.1429 152.094 24.667C151.907 25.1836 151.813 25.7601 151.813 26.3965V33H149.938V20.6914H151.488L151.69 22.96H151.769C152.023 22.5033 152.33 22.0877 152.689 21.7134C153.049 21.3315 153.464 21.0283 153.936 20.8037C154.415 20.5791 154.947 20.4668 155.531 20.4668ZM160.618 28.4404V27.8564C160.618 27.2575 160.674 26.7446 160.787 26.3179C160.899 25.8836 161.094 25.4793 161.371 25.105C161.655 24.7306 162.048 24.3338 162.55 23.9146C163.134 23.4279 163.594 23.0161 163.931 22.6792C164.276 22.3348 164.523 21.9904 164.672 21.646C164.822 21.3016 164.897 20.8861 164.897 20.3994C164.897 19.6208 164.646 19.0256 164.145 18.6138C163.643 18.1945 162.935 17.9849 162.022 17.9849C161.281 17.9849 160.622 18.0785 160.045 18.2656C159.469 18.4528 158.915 18.6774 158.383 18.9395L157.732 17.4346C158.346 17.1126 159.012 16.8506 159.731 16.6484C160.45 16.4463 161.251 16.3452 162.134 16.3452C163.579 16.3452 164.699 16.7046 165.492 17.4233C166.286 18.1346 166.683 19.1154 166.683 20.3657C166.683 21.062 166.57 21.6572 166.346 22.1514C166.121 22.638 165.803 23.0872 165.391 23.499C164.979 23.9033 164.493 24.3338 163.931 24.7905C163.437 25.2098 163.059 25.5804 162.797 25.9023C162.535 26.2168 162.355 26.5425 162.258 26.8794C162.16 27.2088 162.112 27.6056 162.112 28.0698V28.4404H160.618ZM160.124 31.832C160.124 31.3079 160.248 30.9373 160.495 30.7202C160.742 30.4956 161.06 30.3833 161.449 30.3833C161.816 30.3833 162.127 30.4956 162.381 30.7202C162.643 30.9373 162.774 31.3079 162.774 31.832C162.774 32.3486 162.643 32.7267 162.381 32.9663C162.127 33.1984 161.816 33.3145 161.449 33.3145C161.06 33.3145 160.742 33.1984 160.495 32.9663C160.248 32.7267 160.124 32.3486 160.124 31.832Z" fill="black"/>
<rect x="203" width="112" height="48" rx="8" fill="#4589FF"/>
<path d="M230.511 28.6313C230.511 29.6047 230.268 30.4357 229.781 31.1245C229.302 31.8058 228.628 32.3262 227.76 32.6855C226.891 33.0449 225.869 33.2246 224.694 33.2246C224.072 33.2246 223.485 33.1947 222.931 33.1348C222.377 33.0749 221.868 32.9888 221.403 32.8765C220.939 32.7642 220.531 32.6257 220.179 32.4609V30.6304C220.741 30.8625 221.426 31.0796 222.234 31.2817C223.043 31.4764 223.889 31.5737 224.772 31.5737C225.596 31.5737 226.292 31.4652 226.861 31.248C227.43 31.0234 227.861 30.7052 228.153 30.2935C228.452 29.8742 228.602 29.3726 228.602 28.7886C228.602 28.2271 228.479 27.7591 228.231 27.3848C227.984 27.0029 227.573 26.6585 226.996 26.3516C226.427 26.0371 225.648 25.7039 224.66 25.3521C223.964 25.105 223.35 24.8354 222.818 24.5435C222.287 24.244 221.841 23.9071 221.482 23.5327C221.123 23.1584 220.849 22.7241 220.662 22.23C220.482 21.7358 220.393 21.1706 220.393 20.5342C220.393 19.6582 220.613 18.9095 221.055 18.2881C221.504 17.6592 222.122 17.18 222.908 16.8506C223.702 16.5137 224.611 16.3452 225.637 16.3452C226.513 16.3452 227.322 16.4276 228.063 16.5923C228.812 16.757 229.497 16.9779 230.118 17.2549L229.523 18.8945C228.931 18.6475 228.303 18.4416 227.636 18.2769C226.977 18.1121 226.296 18.0298 225.592 18.0298C224.889 18.0298 224.293 18.1346 223.807 18.3442C223.327 18.5464 222.961 18.8346 222.706 19.209C222.451 19.5833 222.324 20.0288 222.324 20.5454C222.324 21.1219 222.444 21.6011 222.684 21.9829C222.931 22.3647 223.32 22.7054 223.852 23.0049C224.391 23.2969 225.102 23.6038 225.985 23.9258C226.951 24.2777 227.771 24.652 228.445 25.0488C229.119 25.4382 229.632 25.9173 229.983 26.4863C230.335 27.0479 230.511 27.7629 230.511 28.6313ZM235.453 20.6914V33H233.588V20.6914H235.453ZM234.543 16.0869C234.85 16.0869 235.112 16.188 235.329 16.3901C235.554 16.5848 235.666 16.8918 235.666 17.311C235.666 17.7228 235.554 18.0298 235.329 18.2319C235.112 18.4341 234.85 18.5352 234.543 18.5352C234.221 18.5352 233.951 18.4341 233.734 18.2319C233.525 18.0298 233.42 17.7228 233.42 17.311C233.42 16.8918 233.525 16.5848 233.734 16.3901C233.951 16.188 234.221 16.0869 234.543 16.0869ZM242.842 38.5254C241.225 38.5254 239.979 38.2222 239.103 37.6157C238.227 37.0168 237.789 36.1745 237.789 35.0889C237.789 34.3177 238.032 33.6589 238.519 33.1123C239.013 32.5658 239.694 32.2026 240.562 32.0229C240.241 31.8732 239.964 31.6486 239.731 31.3491C239.507 31.0496 239.395 30.7052 239.395 30.3159C239.395 29.8667 239.518 29.4736 239.765 29.1367C240.02 28.7923 240.405 28.4629 240.922 28.1484C240.278 27.8864 239.754 27.4447 239.35 26.8232C238.953 26.1943 238.754 25.4644 238.754 24.6333C238.754 23.7498 238.938 22.9974 239.305 22.376C239.672 21.7471 240.203 21.2679 240.899 20.9385C241.596 20.609 242.438 20.4443 243.426 20.4443C243.643 20.4443 243.861 20.4556 244.078 20.478C244.302 20.493 244.516 20.5192 244.718 20.5566C244.92 20.5866 245.096 20.624 245.246 20.6689H249.468V21.8706L247.2 22.1514C247.424 22.4434 247.611 22.7952 247.761 23.207C247.911 23.6188 247.986 24.0755 247.986 24.5771C247.986 25.805 247.57 26.7821 246.739 27.5083C245.908 28.2271 244.766 28.5864 243.314 28.5864C242.97 28.5864 242.618 28.5565 242.258 28.4966C241.891 28.6987 241.611 28.9233 241.416 29.1704C241.229 29.4175 241.135 29.702 241.135 30.0239C241.135 30.2635 241.206 30.4544 241.349 30.5967C241.498 30.7389 241.712 30.8438 241.989 30.9111C242.266 30.971 242.599 31.001 242.988 31.001H245.156C246.496 31.001 247.522 31.2817 248.233 31.8433C248.952 32.4048 249.311 33.2246 249.311 34.3027C249.311 35.6654 248.757 36.7098 247.649 37.436C246.541 38.1623 244.939 38.5254 242.842 38.5254ZM242.898 37.0654C243.917 37.0654 244.759 36.9606 245.425 36.751C246.099 36.5488 246.601 36.2531 246.93 35.8638C247.267 35.4819 247.436 35.0252 247.436 34.4937C247.436 33.9995 247.323 33.6252 247.099 33.3706C246.874 33.1235 246.545 32.9588 246.11 32.8765C245.676 32.7866 245.145 32.7417 244.516 32.7417H242.382C241.828 32.7417 241.345 32.8278 240.933 33C240.521 33.1722 240.203 33.4268 239.979 33.7637C239.761 34.1006 239.653 34.5199 239.653 35.0215C239.653 35.6878 239.934 36.1932 240.495 36.5376C241.057 36.8895 241.858 37.0654 242.898 37.0654ZM243.381 27.2275C244.272 27.2275 244.942 27.0029 245.392 26.5537C245.841 26.1045 246.065 25.4494 246.065 24.5884C246.065 23.6675 245.837 22.9787 245.38 22.522C244.924 22.0578 244.25 21.8257 243.359 21.8257C242.505 21.8257 241.847 22.0653 241.382 22.5444C240.926 23.0161 240.697 23.7087 240.697 24.6221C240.697 25.4606 240.929 26.1045 241.394 26.5537C241.858 27.0029 242.52 27.2275 243.381 27.2275ZM257.723 20.4668C259.183 20.4668 260.287 20.8262 261.036 21.5449C261.784 22.2562 262.159 23.4017 262.159 24.9814V33H260.317V25.105C260.317 24.0793 260.081 23.3118 259.609 22.8027C259.145 22.2936 258.43 22.0391 257.464 22.0391C256.102 22.0391 255.143 22.4246 254.589 23.1958C254.035 23.967 253.758 25.0863 253.758 26.5537V33H251.894V20.6914H253.399L253.68 22.4658H253.781C254.043 22.0316 254.376 21.6685 254.78 21.3765C255.185 21.077 255.638 20.8524 256.139 20.7026C256.641 20.5454 257.169 20.4668 257.723 20.4668ZM282.138 20.6914V33H280.61L280.341 31.2705H280.24C279.985 31.6973 279.656 32.0566 279.251 32.3486C278.847 32.6406 278.39 32.8577 277.881 33C277.38 33.1497 276.844 33.2246 276.275 33.2246C275.302 33.2246 274.486 33.0674 273.827 32.7529C273.168 32.4385 272.67 31.9518 272.333 31.293C272.004 30.6341 271.839 29.7881 271.839 28.7549V20.6914H273.726V28.6201C273.726 29.6458 273.958 30.4132 274.422 30.9224C274.887 31.424 275.594 31.6748 276.545 31.6748C277.458 31.6748 278.185 31.5026 278.724 31.1582C279.27 30.8138 279.663 30.3084 279.903 29.6421C280.142 28.9683 280.262 28.1447 280.262 27.1714V20.6914H282.138ZM291.863 20.4668C293.398 20.4668 294.622 20.9946 295.536 22.0503C296.449 23.106 296.906 24.6932 296.906 26.812C296.906 28.2121 296.696 29.3875 296.277 30.3384C295.858 31.2892 295.266 32.008 294.502 32.4946C293.746 32.9813 292.852 33.2246 291.818 33.2246C291.167 33.2246 290.594 33.1385 290.1 32.9663C289.606 32.7941 289.183 32.562 288.831 32.27C288.479 31.978 288.187 31.6598 287.955 31.3154H287.82C287.843 31.6074 287.869 31.9593 287.899 32.3711C287.936 32.7829 287.955 33.1423 287.955 33.4492V38.5029H286.08V20.6914H287.618L287.865 22.5107H287.955C288.195 22.1364 288.487 21.7957 288.831 21.4888C289.175 21.1743 289.595 20.9272 290.089 20.7476C290.59 20.5604 291.182 20.4668 291.863 20.4668ZM291.538 22.0391C290.684 22.0391 289.995 22.2038 289.471 22.5332C288.955 22.8626 288.576 23.3568 288.337 24.0156C288.097 24.667 287.97 25.4868 287.955 26.4751V26.8345C287.955 27.8752 288.067 28.7549 288.292 29.4736C288.524 30.1924 288.902 30.7389 289.426 31.1133C289.958 31.4876 290.669 31.6748 291.56 31.6748C292.324 31.6748 292.96 31.4689 293.469 31.0571C293.978 30.6453 294.356 30.0726 294.604 29.3389C294.858 28.5977 294.985 27.7479 294.985 26.7896C294.985 25.3371 294.701 24.1841 294.132 23.3306C293.57 22.4696 292.706 22.0391 291.538 22.0391Z" fill="white"/>
</svg>
