<svg width="144" height="59" viewBox="0 0 144 59" fill="none" xmlns="http://www.w3.org/2000/svg">
<g filter="url(#filter0_d_156_933)">
<rect x="3.99951" y="4" width="136" height="51" rx="10" fill="white"/>
<path d="M40.355 37V23.4365H41.9321V35.5898H47.9531V37H40.355ZM58.8169 31.8975C58.8169 32.7324 58.7087 33.4777 58.4922 34.1333C58.2757 34.7889 57.9634 35.3424 57.5552 35.7939C57.147 36.2454 56.6522 36.5918 56.0708 36.833C55.4956 37.068 54.8431 37.1855 54.1133 37.1855C53.4329 37.1855 52.8083 37.068 52.2393 36.833C51.6764 36.5918 51.1878 36.2454 50.7734 35.7939C50.3652 35.3424 50.0467 34.7889 49.8179 34.1333C49.5952 33.4777 49.4839 32.7324 49.4839 31.8975C49.4839 30.7842 49.6725 29.8379 50.0498 29.0586C50.4271 28.2731 50.9652 27.6763 51.6641 27.2681C52.3691 26.8537 53.2072 26.6465 54.1782 26.6465C55.106 26.6465 55.9162 26.8537 56.6089 27.2681C57.3078 27.6825 57.849 28.2824 58.2324 29.0679C58.6221 29.8472 58.8169 30.7904 58.8169 31.8975ZM51.0796 31.8975C51.0796 32.7139 51.1878 33.422 51.4043 34.022C51.6208 34.6219 51.9548 35.0858 52.4062 35.4136C52.8577 35.7414 53.4391 35.9053 54.1504 35.9053C54.8555 35.9053 55.4338 35.7414 55.8853 35.4136C56.3429 35.0858 56.68 34.6219 56.8965 34.022C57.113 33.422 57.2212 32.7139 57.2212 31.8975C57.2212 31.0872 57.113 30.3883 56.8965 29.8008C56.68 29.207 56.346 28.7493 55.8945 28.4277C55.443 28.1061 54.8586 27.9453 54.1411 27.9453C53.0835 27.9453 52.3073 28.2948 51.8125 28.9937C51.3239 29.6925 51.0796 30.6605 51.0796 31.8975ZM69.7549 36.9814L67.9458 31.0625C67.8654 30.8089 67.7881 30.5615 67.7139 30.3203C67.6458 30.0729 67.5809 29.8379 67.519 29.6152C67.4634 29.3864 67.4108 29.1761 67.3613 28.9844C67.318 28.7865 67.2809 28.6164 67.25 28.4741H67.1851C67.1603 28.6164 67.1263 28.7865 67.083 28.9844C67.0397 29.1761 66.9871 29.3864 66.9253 29.6152C66.8696 29.8441 66.8078 30.0853 66.7397 30.3389C66.6717 30.5863 66.5944 30.8368 66.5078 31.0903L64.6152 36.9814H62.8804L60.0786 26.8135H61.6743L63.1401 32.4263C63.2391 32.7974 63.3319 33.1654 63.4185 33.5303C63.5112 33.889 63.5885 34.2292 63.6504 34.5508C63.7184 34.8662 63.7679 35.1414 63.7988 35.3765H63.873C63.9102 35.2218 63.9504 35.0363 63.9937 34.8198C64.0431 34.6034 64.0957 34.3745 64.1514 34.1333C64.2132 33.8859 64.2782 33.6416 64.3462 33.4004C64.4142 33.153 64.4823 32.9211 64.5503 32.7046L66.4243 26.8135H68.085L69.894 32.6953C69.9868 32.9922 70.0765 33.3014 70.1631 33.623C70.2559 33.9447 70.3394 34.257 70.4136 34.5601C70.4878 34.8569 70.5404 35.1229 70.5713 35.3579H70.6455C70.6702 35.1476 70.7166 34.8879 70.7847 34.5786C70.8527 34.2694 70.93 33.9292 71.0166 33.5581C71.1094 33.187 71.2052 32.8097 71.3042 32.4263L72.7886 26.8135H74.3564L71.5454 36.9814H69.7549Z" fill="black"/>
<path d="M95.4995 31.0061C95.2649 31.0065 95.0364 30.9317 94.8475 30.7926L85.9444 24.2229C85.8286 24.1373 85.7307 24.0298 85.6565 23.9065C85.5822 23.7831 85.533 23.6464 85.5117 23.504C85.4685 23.2166 85.5414 22.9237 85.7143 22.6899C85.8872 22.4562 86.146 22.3006 86.4337 22.2575C86.7214 22.2144 87.0144 22.2872 87.2484 22.46L95.4995 28.5425L103.751 22.46C103.866 22.3744 103.998 22.3125 104.138 22.2778C104.278 22.243 104.423 22.2361 104.565 22.2575C104.708 22.2788 104.845 22.328 104.968 22.4022C105.091 22.4764 105.199 22.5742 105.285 22.6899C105.37 22.8057 105.432 22.9372 105.467 23.0768C105.502 23.2165 105.509 23.3617 105.487 23.504C105.466 23.6464 105.417 23.7831 105.343 23.9065C105.268 24.0298 105.17 24.1373 105.055 24.2229L96.1515 30.7926C95.9626 30.9317 95.7341 31.0065 95.4995 31.0061Z" fill="#7AE229"/>
<path d="M95.4995 36.7547C95.2649 36.7551 95.0364 36.6802 94.8475 36.5412L85.9444 29.9714C85.7105 29.7986 85.5548 29.5401 85.5117 29.2526C85.4685 28.9651 85.5414 28.6723 85.7143 28.4385C85.8872 28.2047 86.146 28.0491 86.4337 28.006C86.7214 27.9629 87.0144 28.0358 87.2484 28.2085L95.4995 34.291L103.751 28.2085C103.985 28.0358 104.278 27.9629 104.565 28.006C104.853 28.0491 105.112 28.2047 105.285 28.4385C105.458 28.6723 105.531 28.9651 105.487 29.2526C105.444 29.5401 105.289 29.7986 105.055 29.9714L96.1515 36.5412C95.9626 36.6802 95.7341 36.7551 95.4995 36.7547Z" fill="#7AE229"/>
</g>
<defs>
<filter id="filter0_d_156_933" x="-0.000488281" y="0" width="144" height="59" filterUnits="userSpaceOnUse" color-interpolation-filters="sRGB">
<feFlood flood-opacity="0" result="BackgroundImageFix"/>
<feColorMatrix in="SourceAlpha" type="matrix" values="0 0 0 0 0 0 0 0 0 0 0 0 0 0 0 0 0 0 127 0" result="hardAlpha"/>
<feOffset/>
<feGaussianBlur stdDeviation="2"/>
<feColorMatrix type="matrix" values="0 0 0 0 0 0 0 0 0 0 0 0 0 0 0 0 0 0 0.16 0"/>
<feBlend mode="normal" in2="BackgroundImageFix" result="effect1_dropShadow_156_933"/>
<feBlend mode="normal" in="SourceGraphic" in2="effect1_dropShadow_156_933" result="shape"/>
</filter>
</defs>
</svg>
