<svg width="144" height="59" viewBox="0 0 144 59" fill="none" xmlns="http://www.w3.org/2000/svg">
<g filter="url(#filter0_d_156_926)">
<rect x="3.99951" y="4" width="136" height="51" rx="10" fill="white"/>
<path d="M27.8203 37L23.2651 24.9951H23.1909C23.2157 25.2487 23.2373 25.5579 23.2559 25.9229C23.2744 26.2878 23.2899 26.6867 23.3022 27.1196C23.3146 27.5464 23.3208 27.9824 23.3208 28.4277V37H21.855V23.4365H24.1929L28.4883 34.7178H28.5532L32.9136 23.4365H35.2329V37H33.6743V28.3164C33.6743 27.9144 33.6805 27.5124 33.6929 27.1104C33.7052 26.7021 33.7207 26.3187 33.7393 25.96C33.7578 25.5951 33.7764 25.2796 33.7949 25.0137H33.7207L29.1099 37H27.8203ZM42.627 26.6465C43.4928 26.6465 44.235 26.8382 44.8535 27.2217C45.472 27.6051 45.9451 28.1432 46.2729 28.8359C46.6007 29.5225 46.7646 30.3265 46.7646 31.248V32.2036H39.7417C39.7603 33.3973 40.0571 34.3065 40.6323 34.9312C41.2075 35.5558 42.0177 35.8682 43.063 35.8682C43.7062 35.8682 44.2752 35.8094 44.77 35.6919C45.2648 35.5744 45.7782 35.4012 46.3101 35.1724V36.5269C45.7967 36.7557 45.2865 36.9227 44.7793 37.0278C44.2783 37.133 43.6846 37.1855 42.998 37.1855C42.0208 37.1855 41.1673 36.9876 40.4375 36.5918C39.7139 36.1898 39.151 35.6022 38.749 34.8291C38.347 34.056 38.146 33.1097 38.146 31.9902C38.146 30.8955 38.3285 29.9492 38.6934 29.1514C39.0645 28.3473 39.584 27.7288 40.252 27.2959C40.9261 26.863 41.7178 26.6465 42.627 26.6465ZM42.6084 27.9082C41.7858 27.9082 41.1302 28.1772 40.6416 28.7153C40.153 29.2534 39.8623 30.0049 39.7695 30.9697H45.1504C45.1442 30.3636 45.0483 29.8317 44.8628 29.374C44.6834 28.9102 44.4082 28.5514 44.0371 28.2979C43.666 28.0381 43.1898 27.9082 42.6084 27.9082ZM52.999 37.1855C51.7126 37.1855 50.6921 36.7464 49.9375 35.8682C49.1891 34.9899 48.8149 33.6849 48.8149 31.9531C48.8149 30.2028 49.1984 28.8823 49.9653 27.9917C50.7323 27.0949 51.7528 26.6465 53.0269 26.6465C53.5649 26.6465 54.035 26.7176 54.437 26.8599C54.839 27.0021 55.1854 27.1938 55.4761 27.4351C55.7668 27.6701 56.0111 27.9391 56.209 28.2422H56.3203C56.2956 28.0505 56.2708 27.7876 56.2461 27.4536C56.2214 27.1196 56.209 26.8475 56.209 26.6372V22.5645H57.749V37H56.5059L56.2739 35.5527H56.209C56.0173 35.8558 55.7729 36.131 55.4761 36.3784C55.1854 36.6258 54.8359 36.8237 54.4277 36.9722C54.0257 37.1144 53.5495 37.1855 52.999 37.1855ZM53.2402 35.9053C54.3288 35.9053 55.0988 35.596 55.5503 34.9775C56.0018 34.359 56.2275 33.4406 56.2275 32.2222V31.9438C56.2275 30.6512 56.0111 29.6585 55.5781 28.9658C55.1514 28.2731 54.3721 27.9268 53.2402 27.9268C52.2939 27.9268 51.5858 28.2917 51.1157 29.0215C50.6457 29.7451 50.4106 30.7347 50.4106 31.9902C50.4106 33.2396 50.6426 34.2044 51.1064 34.8848C51.5765 35.5651 52.2878 35.9053 53.2402 35.9053ZM62.5547 26.832V37H61.0146V26.832H62.5547ZM61.8032 23.0283C62.0568 23.0283 62.2733 23.1118 62.4526 23.2788C62.6382 23.4396 62.731 23.6932 62.731 24.0396C62.731 24.3797 62.6382 24.6333 62.4526 24.8003C62.2733 24.9673 62.0568 25.0508 61.8032 25.0508C61.5373 25.0508 61.3146 24.9673 61.1353 24.8003C60.9621 24.6333 60.8755 24.3797 60.8755 24.0396C60.8755 23.6932 60.9621 23.4396 61.1353 23.2788C61.3146 23.1118 61.5373 23.0283 61.8032 23.0283ZM74.2163 26.832V37H72.9546L72.7319 35.5713H72.6484C72.4382 35.9238 72.166 36.2207 71.832 36.4619C71.498 36.7031 71.1208 36.8825 70.7002 37C70.2858 37.1237 69.8436 37.1855 69.3735 37.1855C68.5695 37.1855 67.8953 37.0557 67.3511 36.7959C66.8068 36.5361 66.3955 36.1341 66.1172 35.5898C65.8451 35.0456 65.709 34.3467 65.709 33.4932V26.832H67.2676V33.3818C67.2676 34.2292 67.4593 34.8631 67.8428 35.2837C68.2262 35.6981 68.8107 35.9053 69.5962 35.9053C70.3507 35.9053 70.9507 35.763 71.396 35.4785C71.8475 35.194 72.1722 34.7765 72.3701 34.2261C72.568 33.6694 72.667 32.9891 72.667 32.1851V26.832H74.2163ZM88.5127 26.6465C89.6322 26.6465 90.4764 26.9403 91.0454 27.5278C91.6144 28.1092 91.8989 29.0462 91.8989 30.3389V37H90.3774V30.4131C90.3774 29.5905 90.1981 28.9751 89.8394 28.5669C89.4868 28.1525 88.9611 27.9453 88.2622 27.9453C87.2788 27.9453 86.5645 28.2298 86.1191 28.7988C85.6738 29.3678 85.4512 30.2059 85.4512 31.313V37H83.9204V30.4131C83.9204 29.8626 83.84 29.4049 83.6792 29.04C83.5246 28.6751 83.2896 28.403 82.9741 28.2236C82.6649 28.0381 82.2721 27.9453 81.7959 27.9453C81.1217 27.9453 80.5806 28.0845 80.1724 28.3628C79.7642 28.6411 79.4673 29.0555 79.2817 29.606C79.1024 30.1502 79.0127 30.8213 79.0127 31.6191V37H77.4727V26.832H78.7158L78.9478 28.27H79.0312C79.2354 27.9175 79.492 27.6206 79.8013 27.3794C80.1105 27.1382 80.4569 26.9557 80.8403 26.832C81.2238 26.7083 81.632 26.6465 82.0649 26.6465C82.8381 26.6465 83.4844 26.7918 84.0039 27.0825C84.5296 27.367 84.91 27.8031 85.145 28.3906H85.2285C85.5625 27.8031 86.0202 27.367 86.6016 27.0825C87.1829 26.7918 87.82 26.6465 88.5127 26.6465Z" fill="black"/>
<g clip-path="url(#clip0_156_926)">
<path d="M122.904 33.2253H105.095C104.805 33.2253 104.526 33.109 104.32 32.902C104.115 32.695 104 32.4142 104 32.1214C104 31.8287 104.115 31.5479 104.32 31.3409C104.526 31.1339 104.805 31.0176 105.095 31.0176H122.904C123.194 31.0176 123.473 31.1339 123.679 31.3409C123.884 31.5479 124 31.8287 124 32.1214C124 32.4142 123.884 32.695 123.679 32.902C123.473 33.109 123.194 33.2253 122.904 33.2253Z" fill="#FFA800"/>
<path d="M122.904 27.9821H105.095C104.805 27.9821 104.526 27.8658 104.32 27.6588C104.115 27.4518 104 27.171 104 26.8783C104 26.5855 104.115 26.3047 104.32 26.0977C104.526 25.8907 104.805 25.7744 105.095 25.7744H122.904C123.194 25.7744 123.473 25.8907 123.679 26.0977C123.884 26.3047 124 26.5855 124 26.8783C124 27.171 123.884 27.4518 123.679 27.6588C123.473 27.8658 123.194 27.9821 122.904 27.9821Z" fill="#FFA800"/>
</g>
</g>
<defs>
<filter id="filter0_d_156_926" x="-0.000488281" y="0" width="144" height="59" filterUnits="userSpaceOnUse" color-interpolation-filters="sRGB">
<feFlood flood-opacity="0" result="BackgroundImageFix"/>
<feColorMatrix in="SourceAlpha" type="matrix" values="0 0 0 0 0 0 0 0 0 0 0 0 0 0 0 0 0 0 127 0" result="hardAlpha"/>
<feOffset/>
<feGaussianBlur stdDeviation="2"/>
<feColorMatrix type="matrix" values="0 0 0 0 0 0 0 0 0 0 0 0 0 0 0 0 0 0 0.16 0"/>
<feBlend mode="normal" in2="BackgroundImageFix" result="effect1_dropShadow_156_926"/>
<feBlend mode="normal" in="SourceGraphic" in2="effect1_dropShadow_156_926" result="shape"/>
</filter>
<clipPath id="clip0_156_926">
<rect width="20" height="7.45098" fill="white" transform="translate(104 25.7744)"/>
</clipPath>
</defs>
</svg>
