<svg width="24" height="25" viewBox="0 0 24 25" fill="none" xmlns="http://www.w3.org/2000/svg">
<mask id="mask0_19398_10189" style="mask-type:alpha" maskUnits="userSpaceOnUse" x="0" y="0" width="24" height="25">
<rect y="0.96582" width="24" height="24" fill="#D9D9D9"/>
</mask>
<g mask="url(#mask0_19398_10189)">
<path d="M12.7 11.2659L15.3 13.8659C15.6167 14.1826 15.6875 14.5451 15.5125 14.9534C15.3375 15.3618 15.025 15.5659 14.575 15.5659H9.42502C8.97502 15.5659 8.66253 15.3618 8.48752 14.9534C8.31252 14.5451 8.38336 14.1826 8.70003 13.8659L11.3 11.2659C11.4 11.1659 11.5084 11.0909 11.625 11.0409C11.7417 10.9909 11.8667 10.9659 12 10.9659C12.1334 10.9659 12.2584 10.9909 12.375 11.0409C12.4917 11.0909 12.6 11.1659 12.7 11.2659Z" fill="#4589FF"/>
</g>
</svg>
