<svg width="19" height="19" viewBox="0 0 19 19" fill="none" xmlns="http://www.w3.org/2000/svg">
<g clip-path="url(#clip0_50953_5475)">
<path d="M19.0001 0.100098V1.7901C19.0017 2.41806 18.8789 3.04012 18.6386 3.62029C18.3983 4.20046 18.0453 4.72722 17.6001 5.1701L5.1701 17.6001C4.72722 18.0453 4.20046 18.3983 3.62029 18.6386C3.04012 18.8789 2.41806 19.0017 1.7901 19.0001H0.100098L19.0001 0.100098Z" fill="#D1D1D1"/>
<path d="M19.0001 6.41016V8.10016C19.0007 8.72796 18.8773 9.3497 18.637 9.92971C18.3968 10.5097 18.0444 11.0366 17.6001 11.4802L11.4801 17.6002C11.0366 18.0445 10.5097 18.3968 9.92965 18.6371C9.34964 18.8773 8.7279 19.0007 8.1001 19.0002H6.4101L19.0001 6.41016Z" fill="#D1D1D1"/>
<path d="M19.0001 12.53V14.22C19.0007 14.8478 18.8773 15.4696 18.637 16.0496C18.3968 16.6296 18.0444 17.1565 17.6001 17.6C17.1566 18.0443 16.6297 18.3967 16.0497 18.637C15.4696 18.8772 14.8479 19.0006 14.2201 19H12.5301L19.0001 12.53Z" fill="#D1D1D1"/>
</g>
<defs>
<clipPath id="clip0_50953_5475">
<rect width="18.9" height="18.9" fill="white" transform="translate(0.100098 0.100098)"/>
</clipPath>
</defs>
</svg>
