<svg width="334" height="82" viewBox="0 0 334 82" fill="none" xmlns="http://www.w3.org/2000/svg">
<g filter="url(#filter0_d_18787_5666)">
<rect x="4" y="4" width="326" height="74" rx="20" fill="#4589FF" shape-rendering="crispEdges"/>
<path d="M28.9351 41.813L33.3037 33.5811H35.3589L29.8896 43.6323V50H27.9805V43.7222L22.5 33.5811H24.5889L28.9351 41.813ZM47.9482 43.8232C47.9482 44.834 47.8172 45.7362 47.5552 46.5298C47.2931 47.3234 46.915 47.9935 46.4209 48.54C45.9268 49.0866 45.3278 49.5059 44.624 49.7979C43.9277 50.0824 43.1379 50.2246 42.2544 50.2246C41.4308 50.2246 40.6746 50.0824 39.9858 49.7979C39.3045 49.5059 38.7131 49.0866 38.2114 48.54C37.7173 47.9935 37.3317 47.3234 37.0547 46.5298C36.7852 45.7362 36.6504 44.834 36.6504 43.8232C36.6504 42.4756 36.8787 41.3301 37.3354 40.3867C37.7922 39.4359 38.4435 38.7134 39.2896 38.2192C40.1431 37.7176 41.1576 37.4668 42.333 37.4668C43.4561 37.4668 44.4368 37.7176 45.2754 38.2192C46.1214 38.7209 46.7765 39.4471 47.2407 40.3979C47.7124 41.3413 47.9482 42.4831 47.9482 43.8232ZM38.582 43.8232C38.582 44.8115 38.7131 45.6688 38.9751 46.395C39.2371 47.1213 39.6414 47.6828 40.188 48.0796C40.7345 48.4764 41.4383 48.6748 42.2993 48.6748C43.1528 48.6748 43.8529 48.4764 44.3994 48.0796C44.9535 47.6828 45.3615 47.1213 45.6235 46.395C45.8856 45.6688 46.0166 44.8115 46.0166 43.8232C46.0166 42.8424 45.8856 41.9964 45.6235 41.2852C45.3615 40.5664 44.9572 40.0124 44.4106 39.623C43.8641 39.2337 43.1566 39.0391 42.2881 39.0391C41.0078 39.0391 40.0682 39.4621 39.4692 40.3081C38.8778 41.1541 38.582 42.3258 38.582 43.8232ZM61.335 37.6914V50H59.8076L59.5381 48.2705H59.437C59.1825 48.6973 58.853 49.0566 58.4487 49.3486C58.0444 49.6406 57.5877 49.8577 57.0786 50C56.577 50.1497 56.0417 50.2246 55.4727 50.2246C54.4993 50.2246 53.6833 50.0674 53.0244 49.7529C52.3656 49.4385 51.8677 48.9518 51.5308 48.293C51.2013 47.6341 51.0366 46.7881 51.0366 45.7549V37.6914H52.9233V45.6201C52.9233 46.6458 53.1554 47.4132 53.6196 47.9224C54.0838 48.424 54.7913 48.6748 55.7422 48.6748C56.6556 48.6748 57.3818 48.5026 57.9209 48.1582C58.4674 47.8138 58.8605 47.3084 59.1001 46.6421C59.3397 45.9683 59.4595 45.1447 59.4595 44.1714V37.6914H61.335ZM80.7974 45.6313C80.7974 46.6047 80.554 47.4357 80.0674 48.1245C79.5882 48.8058 78.9144 49.3262 78.0459 49.6855C77.1774 50.0449 76.1554 50.2246 74.98 50.2246C74.3586 50.2246 73.7708 50.1947 73.2168 50.1348C72.6628 50.0749 72.1536 49.9888 71.6895 49.8765C71.2253 49.7642 70.8172 49.6257 70.4653 49.4609V47.6304C71.0269 47.8625 71.7119 48.0796 72.5205 48.2817C73.3291 48.4764 74.1751 48.5737 75.0586 48.5737C75.8822 48.5737 76.5785 48.4652 77.1475 48.248C77.7165 48.0234 78.147 47.7052 78.439 47.2935C78.7384 46.8742 78.8882 46.3726 78.8882 45.7886C78.8882 45.2271 78.7646 44.7591 78.5176 44.3848C78.2705 44.0029 77.8587 43.6585 77.2822 43.3516C76.7132 43.0371 75.9346 42.7039 74.9463 42.3521C74.25 42.105 73.6361 41.8354 73.1045 41.5435C72.5729 41.244 72.1274 40.9071 71.7681 40.5327C71.4087 40.1584 71.1354 39.7241 70.9482 39.23C70.7686 38.7358 70.6787 38.1706 70.6787 37.5342C70.6787 36.6582 70.8996 35.9095 71.3413 35.2881C71.7905 34.6592 72.4082 34.18 73.1943 33.8506C73.988 33.5137 74.8976 33.3452 75.9233 33.3452C76.7993 33.3452 77.6079 33.4276 78.3491 33.5923C79.0978 33.757 79.7829 33.9779 80.4043 34.2549L79.8091 35.8945C79.2176 35.6475 78.5887 35.4416 77.9224 35.2769C77.2635 35.1121 76.5822 35.0298 75.8784 35.0298C75.1746 35.0298 74.5794 35.1346 74.0928 35.3442C73.6136 35.5464 73.2467 35.8346 72.9922 36.209C72.7376 36.5833 72.6104 37.0288 72.6104 37.5454C72.6104 38.1219 72.7301 38.6011 72.9697 38.9829C73.2168 39.3647 73.6061 39.7054 74.1377 40.0049C74.6768 40.2969 75.388 40.6038 76.2715 40.9258C77.2373 41.2777 78.0571 41.652 78.731 42.0488C79.4048 42.4382 79.9176 42.9173 80.2695 43.4863C80.6214 44.0479 80.7974 44.7629 80.7974 45.6313ZM85.7388 37.6914V50H83.8745V37.6914H85.7388ZM84.8291 33.0869C85.1361 33.0869 85.3981 33.188 85.6152 33.3901C85.8398 33.5848 85.9521 33.8918 85.9521 34.311C85.9521 34.7228 85.8398 35.0298 85.6152 35.2319C85.3981 35.4341 85.1361 35.5352 84.8291 35.5352C84.5072 35.5352 84.2376 35.4341 84.0205 35.2319C83.8109 35.0298 83.7061 34.7228 83.7061 34.311C83.7061 33.8918 83.8109 33.5848 84.0205 33.3901C84.2376 33.188 84.5072 33.0869 84.8291 33.0869ZM93.1284 55.5254C91.5112 55.5254 90.2646 55.2222 89.3887 54.6157C88.5127 54.0168 88.0747 53.1745 88.0747 52.0889C88.0747 51.3177 88.318 50.6589 88.8047 50.1123C89.2988 49.5658 89.9801 49.2026 90.8486 49.0229C90.5267 48.8732 90.2497 48.6486 90.0176 48.3491C89.793 48.0496 89.6807 47.7052 89.6807 47.3159C89.6807 46.8667 89.8042 46.4736 90.0513 46.1367C90.3058 45.7923 90.6914 45.4629 91.208 45.1484C90.5641 44.8864 90.04 44.4447 89.6357 43.8232C89.2389 43.1943 89.0405 42.4644 89.0405 41.6333C89.0405 40.7498 89.224 39.9974 89.5908 39.376C89.9577 38.7471 90.4893 38.2679 91.1855 37.9385C91.8818 37.609 92.7241 37.4443 93.7124 37.4443C93.9295 37.4443 94.1466 37.4556 94.3638 37.478C94.5884 37.493 94.8018 37.5192 95.0039 37.5566C95.2061 37.5866 95.382 37.624 95.5317 37.6689H99.7544V38.8706L97.4858 39.1514C97.7104 39.4434 97.8976 39.7952 98.0474 40.207C98.1971 40.6188 98.272 41.0755 98.272 41.5771C98.272 42.805 97.8564 43.7821 97.0254 44.5083C96.1943 45.2271 95.0526 45.5864 93.6001 45.5864C93.2557 45.5864 92.9038 45.5565 92.5444 45.4966C92.1776 45.6987 91.8968 45.9233 91.7021 46.1704C91.515 46.4175 91.4214 46.702 91.4214 47.0239C91.4214 47.2635 91.4925 47.4544 91.6348 47.5967C91.7845 47.7389 91.9979 47.8438 92.2749 47.9111C92.5519 47.971 92.8851 48.001 93.2744 48.001H95.4419C96.7821 48.001 97.8078 48.2817 98.519 48.8433C99.2378 49.4048 99.5972 50.2246 99.5972 51.3027C99.5972 52.6654 99.0431 53.7098 97.9351 54.436C96.827 55.1623 95.2248 55.5254 93.1284 55.5254ZM93.1846 54.0654C94.2028 54.0654 95.0451 53.9606 95.7114 53.751C96.3853 53.5488 96.8869 53.2531 97.2163 52.8638C97.5532 52.4819 97.7217 52.0252 97.7217 51.4937C97.7217 50.9995 97.6094 50.6252 97.3848 50.3706C97.1602 50.1235 96.8307 49.9588 96.3965 49.8765C95.9622 49.7866 95.4307 49.7417 94.8018 49.7417H92.668C92.1139 49.7417 91.631 49.8278 91.2192 50C90.8075 50.1722 90.4893 50.4268 90.2646 50.7637C90.0475 51.1006 89.939 51.5199 89.939 52.0215C89.939 52.6878 90.2197 53.1932 90.7812 53.5376C91.3428 53.8895 92.1439 54.0654 93.1846 54.0654ZM93.6675 44.2275C94.5584 44.2275 95.2285 44.0029 95.6777 43.5537C96.127 43.1045 96.3516 42.4494 96.3516 41.5884C96.3516 40.6675 96.1232 39.9787 95.6665 39.522C95.2098 39.0578 94.536 38.8257 93.645 38.8257C92.7915 38.8257 92.1326 39.0653 91.6685 39.5444C91.2118 40.0161 90.9834 40.7087 90.9834 41.6221C90.9834 42.4606 91.2155 43.1045 91.6797 43.5537C92.1439 44.0029 92.8065 44.2275 93.6675 44.2275ZM108.009 37.4668C109.469 37.4668 110.573 37.8262 111.322 38.5449C112.07 39.2562 112.445 40.4017 112.445 41.9814V50H110.603V42.105C110.603 41.0793 110.367 40.3118 109.896 39.8027C109.431 39.2936 108.716 39.0391 107.75 39.0391C106.388 39.0391 105.43 39.4246 104.875 40.1958C104.321 40.967 104.044 42.0863 104.044 43.5537V50H102.18V37.6914H103.685L103.966 39.4658H104.067C104.329 39.0316 104.662 38.6685 105.066 38.3765C105.471 38.077 105.924 37.8524 106.425 37.7026C106.927 37.5454 107.455 37.4668 108.009 37.4668ZM121.025 37.4668C122.073 37.4668 122.972 37.6989 123.72 38.1631C124.469 38.6273 125.042 39.2786 125.438 40.1172C125.835 40.9482 126.034 41.9215 126.034 43.0371V44.1938H117.532C117.555 45.6388 117.914 46.7394 118.61 47.4956C119.307 48.2518 120.287 48.6299 121.553 48.6299C122.331 48.6299 123.02 48.5588 123.619 48.4165C124.218 48.2743 124.84 48.0646 125.483 47.7876V49.4272C124.862 49.7043 124.244 49.9064 123.63 50.0337C123.024 50.161 122.305 50.2246 121.474 50.2246C120.291 50.2246 119.258 49.985 118.375 49.5059C117.499 49.0192 116.817 48.3079 116.331 47.3721C115.844 46.4362 115.601 45.2907 115.601 43.9355C115.601 42.6104 115.821 41.4648 116.263 40.499C116.712 39.5257 117.341 38.777 118.15 38.2529C118.966 37.7288 119.924 37.4668 121.025 37.4668ZM121.002 38.9941C120.007 38.9941 119.213 39.3198 118.622 39.9712C118.03 40.6226 117.678 41.5322 117.566 42.7002H124.08C124.072 41.9665 123.956 41.3226 123.731 40.7686C123.514 40.207 123.181 39.7728 122.732 39.4658C122.283 39.1514 121.706 38.9941 121.002 38.9941ZM133.581 50.2246C132.023 50.2246 130.788 49.693 129.875 48.6299C128.969 47.5667 128.516 45.987 128.516 43.8906C128.516 41.7718 128.98 40.1733 129.908 39.0952C130.837 38.0096 132.072 37.4668 133.614 37.4668C134.266 37.4668 134.835 37.5529 135.321 37.7251C135.808 37.8973 136.227 38.1294 136.579 38.4214C136.931 38.7059 137.227 39.0316 137.466 39.3984H137.601C137.571 39.1663 137.541 38.8481 137.511 38.4438C137.481 38.0396 137.466 37.7101 137.466 37.4556V32.5254H139.331V50H137.826L137.545 48.248H137.466C137.234 48.6149 136.938 48.9481 136.579 49.2476C136.227 49.547 135.804 49.7866 135.31 49.9663C134.823 50.1385 134.247 50.2246 133.581 50.2246ZM133.873 48.6748C135.19 48.6748 136.122 48.3005 136.669 47.5518C137.215 46.8031 137.489 45.6912 137.489 44.2163V43.8794C137.489 42.3146 137.227 41.113 136.703 40.2744C136.186 39.4359 135.243 39.0166 133.873 39.0166C132.727 39.0166 131.87 39.4583 131.301 40.3418C130.732 41.2178 130.447 42.4157 130.447 43.9355C130.447 45.4479 130.728 46.6159 131.29 47.4395C131.859 48.263 132.72 48.6748 133.873 48.6748ZM161.96 33.5811V44.2051C161.96 45.3656 161.724 46.3988 161.252 47.3047C160.788 48.2106 160.084 48.9256 159.141 49.4497C158.198 49.9663 157.015 50.2246 155.592 50.2246C153.563 50.2246 152.017 49.6743 150.954 48.5737C149.898 47.4731 149.371 46.002 149.371 44.1602V33.5811H151.291V44.2163C151.291 45.6089 151.658 46.6833 152.392 47.4395C153.133 48.1956 154.237 48.5737 155.705 48.5737C156.708 48.5737 157.528 48.394 158.164 48.0347C158.808 47.6678 159.283 47.1587 159.59 46.5073C159.905 45.8485 160.062 45.0885 160.062 44.2275V33.5811H161.96ZM171.82 37.4668C173.355 37.4668 174.579 37.9946 175.493 39.0503C176.406 40.106 176.863 41.6932 176.863 43.812C176.863 45.2121 176.653 46.3875 176.234 47.3384C175.815 48.2892 175.223 49.008 174.459 49.4946C173.703 49.9813 172.809 50.2246 171.775 50.2246C171.124 50.2246 170.551 50.1385 170.057 49.9663C169.563 49.7941 169.14 49.562 168.788 49.27C168.436 48.978 168.144 48.6598 167.912 48.3154H167.777C167.8 48.6074 167.826 48.9593 167.856 49.3711C167.893 49.7829 167.912 50.1423 167.912 50.4492V55.5029H166.037V37.6914H167.575L167.822 39.5107H167.912C168.152 39.1364 168.444 38.7957 168.788 38.4888C169.132 38.1743 169.552 37.9272 170.046 37.7476C170.548 37.5604 171.139 37.4668 171.82 37.4668ZM171.495 39.0391C170.641 39.0391 169.952 39.2038 169.428 39.5332C168.912 39.8626 168.534 40.3568 168.294 41.0156C168.054 41.667 167.927 42.4868 167.912 43.4751V43.8345C167.912 44.8752 168.024 45.7549 168.249 46.4736C168.481 47.1924 168.859 47.7389 169.383 48.1133C169.915 48.4876 170.626 48.6748 171.517 48.6748C172.281 48.6748 172.917 48.4689 173.426 48.0571C173.935 47.6453 174.313 47.0726 174.561 46.3389C174.815 45.5977 174.942 44.7479 174.942 43.7896C174.942 42.3371 174.658 41.1841 174.089 40.3306C173.527 39.4696 172.663 39.0391 171.495 39.0391ZM194.057 46.6309C194.057 47.417 193.858 48.0796 193.461 48.6187C193.072 49.1502 192.511 49.5508 191.777 49.8203C191.051 50.0898 190.182 50.2246 189.171 50.2246C188.31 50.2246 187.565 50.1572 186.937 50.0225C186.308 49.8877 185.757 49.6968 185.286 49.4497V47.7314C185.787 47.9785 186.386 48.2031 187.083 48.4053C187.779 48.6074 188.49 48.7085 189.216 48.7085C190.279 48.7085 191.051 48.5363 191.53 48.1919C192.009 47.8475 192.249 47.3796 192.249 46.7881C192.249 46.4512 192.151 46.1554 191.957 45.9009C191.769 45.6388 191.451 45.388 191.002 45.1484C190.553 44.9014 189.931 44.6318 189.138 44.3398C188.352 44.0404 187.67 43.7446 187.094 43.4526C186.525 43.1532 186.083 42.79 185.769 42.3633C185.462 41.9365 185.308 41.3825 185.308 40.7012C185.308 39.6605 185.727 38.8631 186.566 38.3091C187.412 37.7476 188.52 37.4668 189.89 37.4668C190.631 37.4668 191.324 37.5417 191.968 37.6914C192.619 37.8337 193.226 38.0283 193.787 38.2754L193.158 39.769C192.649 39.5519 192.106 39.3685 191.53 39.2188C190.953 39.069 190.366 38.9941 189.767 38.9941C188.906 38.9941 188.243 39.1364 187.779 39.4209C187.322 39.7054 187.094 40.0947 187.094 40.5889C187.094 40.9707 187.199 41.2852 187.408 41.5322C187.625 41.7793 187.97 42.0114 188.441 42.2285C188.913 42.4456 189.535 42.7002 190.306 42.9922C191.077 43.2767 191.743 43.5724 192.305 43.8794C192.866 44.1789 193.297 44.5457 193.596 44.98C193.903 45.4067 194.057 45.957 194.057 46.6309ZM207.219 37.6914V50H205.691L205.422 48.2705H205.321C205.066 48.6973 204.737 49.0566 204.333 49.3486C203.928 49.6406 203.472 49.8577 202.962 50C202.461 50.1497 201.925 50.2246 201.356 50.2246C200.383 50.2246 199.567 50.0674 198.908 49.7529C198.249 49.4385 197.751 48.9518 197.415 48.293C197.085 47.6341 196.92 46.7881 196.92 45.7549V37.6914H198.807V45.6201C198.807 46.6458 199.039 47.4132 199.503 47.9224C199.968 48.424 200.675 48.6748 201.626 48.6748C202.539 48.6748 203.266 48.5026 203.805 48.1582C204.351 47.8138 204.744 47.3084 204.984 46.6421C205.223 45.9683 205.343 45.1447 205.343 44.1714V37.6914H207.219ZM216.091 50.2246C214.983 50.2246 214.006 49.9963 213.16 49.5396C212.314 49.0828 211.655 48.3866 211.183 47.4507C210.711 46.5148 210.476 45.3356 210.476 43.9131C210.476 42.4232 210.723 41.2065 211.217 40.2632C211.718 39.3123 212.407 38.6086 213.283 38.1519C214.159 37.6951 215.155 37.4668 216.271 37.4668C216.884 37.4668 217.476 37.5304 218.045 37.6577C218.621 37.7775 219.093 37.931 219.46 38.1182L218.898 39.6792C218.524 39.5295 218.09 39.3947 217.596 39.2749C217.109 39.1551 216.652 39.0952 216.226 39.0952C215.372 39.0952 214.661 39.2786 214.092 39.6455C213.53 40.0124 213.107 40.5514 212.823 41.2627C212.546 41.974 212.407 42.8499 212.407 43.8906C212.407 44.8864 212.542 45.7362 212.812 46.4399C213.089 47.1437 213.497 47.6828 214.036 48.0571C214.582 48.424 215.264 48.6074 216.08 48.6074C216.731 48.6074 217.319 48.54 217.843 48.4053C218.367 48.263 218.842 48.0983 219.269 47.9111V49.5732C218.857 49.7829 218.397 49.9438 217.888 50.0562C217.386 50.1685 216.787 50.2246 216.091 50.2246ZM227.119 50.2246C226.011 50.2246 225.034 49.9963 224.188 49.5396C223.342 49.0828 222.683 48.3866 222.211 47.4507C221.74 46.5148 221.504 45.3356 221.504 43.9131C221.504 42.4232 221.751 41.2065 222.245 40.2632C222.747 39.3123 223.436 38.6086 224.312 38.1519C225.188 37.6951 226.183 37.4668 227.299 37.4668C227.913 37.4668 228.504 37.5304 229.073 37.6577C229.65 37.7775 230.121 37.931 230.488 38.1182L229.927 39.6792C229.552 39.5295 229.118 39.3947 228.624 39.2749C228.137 39.1551 227.681 39.0952 227.254 39.0952C226.4 39.0952 225.689 39.2786 225.12 39.6455C224.559 40.0124 224.136 40.5514 223.851 41.2627C223.574 41.974 223.436 42.8499 223.436 43.8906C223.436 44.8864 223.57 45.7362 223.84 46.4399C224.117 47.1437 224.525 47.6828 225.064 48.0571C225.611 48.424 226.292 48.6074 227.108 48.6074C227.759 48.6074 228.347 48.54 228.871 48.4053C229.395 48.263 229.871 48.0983 230.297 47.9111V49.5732C229.886 49.7829 229.425 49.9438 228.916 50.0562C228.414 50.1685 227.815 50.2246 227.119 50.2246ZM237.957 37.4668C239.005 37.4668 239.903 37.6989 240.652 38.1631C241.401 38.6273 241.973 39.2786 242.37 40.1172C242.767 40.9482 242.965 41.9215 242.965 43.0371V44.1938H234.464C234.486 45.6388 234.846 46.7394 235.542 47.4956C236.238 48.2518 237.219 48.6299 238.484 48.6299C239.263 48.6299 239.952 48.5588 240.551 48.4165C241.15 48.2743 241.771 48.0646 242.415 47.7876V49.4272C241.794 49.7043 241.176 49.9064 240.562 50.0337C239.956 50.161 239.237 50.2246 238.406 50.2246C237.223 50.2246 236.19 49.985 235.306 49.5059C234.43 49.0192 233.749 48.3079 233.262 47.3721C232.776 46.4362 232.532 45.2907 232.532 43.9355C232.532 42.6104 232.753 41.4648 233.195 40.499C233.644 39.5257 234.273 38.777 235.082 38.2529C235.898 37.7288 236.856 37.4668 237.957 37.4668ZM237.934 38.9941C236.938 38.9941 236.145 39.3198 235.553 39.9712C234.962 40.6226 234.61 41.5322 234.498 42.7002H241.011C241.004 41.9665 240.888 41.3226 240.663 40.7686C240.446 40.207 240.113 39.7728 239.664 39.4658C239.214 39.1514 238.638 38.9941 237.934 38.9941ZM254.095 46.6309C254.095 47.417 253.896 48.0796 253.5 48.6187C253.11 49.1502 252.549 49.5508 251.815 49.8203C251.089 50.0898 250.22 50.2246 249.209 50.2246C248.348 50.2246 247.604 50.1572 246.975 50.0225C246.346 49.8877 245.795 49.6968 245.324 49.4497V47.7314C245.825 47.9785 246.424 48.2031 247.121 48.4053C247.817 48.6074 248.528 48.7085 249.254 48.7085C250.318 48.7085 251.089 48.5363 251.568 48.1919C252.047 47.8475 252.287 47.3796 252.287 46.7881C252.287 46.4512 252.189 46.1554 251.995 45.9009C251.807 45.6388 251.489 45.388 251.04 45.1484C250.591 44.9014 249.969 44.6318 249.176 44.3398C248.39 44.0404 247.708 43.7446 247.132 43.4526C246.563 43.1532 246.121 42.79 245.807 42.3633C245.5 41.9365 245.346 41.3825 245.346 40.7012C245.346 39.6605 245.765 38.8631 246.604 38.3091C247.45 37.7476 248.558 37.4668 249.928 37.4668C250.669 37.4668 251.362 37.5417 252.006 37.6914C252.657 37.8337 253.264 38.0283 253.825 38.2754L253.196 39.769C252.687 39.5519 252.144 39.3685 251.568 39.2188C250.991 39.069 250.404 38.9941 249.805 38.9941C248.944 38.9941 248.281 39.1364 247.817 39.4209C247.36 39.7054 247.132 40.0947 247.132 40.5889C247.132 40.9707 247.237 41.2852 247.446 41.5322C247.663 41.7793 248.008 42.0114 248.479 42.2285C248.951 42.4456 249.573 42.7002 250.344 42.9922C251.115 43.2767 251.781 43.5724 252.343 43.8794C252.904 44.1789 253.335 44.5457 253.634 44.98C253.941 45.4067 254.095 45.957 254.095 46.6309ZM265.056 46.6309C265.056 47.417 264.857 48.0796 264.46 48.6187C264.071 49.1502 263.51 49.5508 262.776 49.8203C262.05 50.0898 261.181 50.2246 260.17 50.2246C259.309 50.2246 258.564 50.1572 257.936 50.0225C257.307 49.8877 256.756 49.6968 256.285 49.4497V47.7314C256.786 47.9785 257.385 48.2031 258.082 48.4053C258.778 48.6074 259.489 48.7085 260.215 48.7085C261.278 48.7085 262.05 48.5363 262.529 48.1919C263.008 47.8475 263.248 47.3796 263.248 46.7881C263.248 46.4512 263.15 46.1554 262.956 45.9009C262.768 45.6388 262.45 45.388 262.001 45.1484C261.552 44.9014 260.93 44.6318 260.137 44.3398C259.351 44.0404 258.669 43.7446 258.093 43.4526C257.524 43.1532 257.082 42.79 256.768 42.3633C256.461 41.9365 256.307 41.3825 256.307 40.7012C256.307 39.6605 256.726 38.8631 257.565 38.3091C258.411 37.7476 259.519 37.4668 260.889 37.4668C261.63 37.4668 262.323 37.5417 262.967 37.6914C263.618 37.8337 264.225 38.0283 264.786 38.2754L264.157 39.769C263.648 39.5519 263.105 39.3685 262.529 39.2188C261.952 39.069 261.365 38.9941 260.766 38.9941C259.905 38.9941 259.242 39.1364 258.778 39.4209C258.321 39.7054 258.093 40.0947 258.093 40.5889C258.093 40.9707 258.198 41.2852 258.407 41.5322C258.624 41.7793 258.969 42.0114 259.44 42.2285C259.912 42.4456 260.534 42.7002 261.305 42.9922C262.076 43.2767 262.742 43.5724 263.304 43.8794C263.865 44.1789 264.296 44.5457 264.595 44.98C264.902 45.4067 265.056 45.957 265.056 46.6309ZM273.535 39.1514H270.469V50H268.604V39.1514H266.426V38.2529L268.604 37.6353V36.8154C268.604 35.7822 268.758 34.9437 269.065 34.2998C269.372 33.6484 269.817 33.1693 270.401 32.8623C270.985 32.5553 271.697 32.4019 272.535 32.4019C273.007 32.4019 273.437 32.443 273.827 32.5254C274.223 32.6077 274.572 32.7013 274.871 32.8062L274.388 34.2773C274.134 34.195 273.845 34.1201 273.523 34.0527C273.209 33.9779 272.887 33.9404 272.558 33.9404C271.846 33.9404 271.319 34.1725 270.974 34.6367C270.637 35.0934 270.469 35.8122 270.469 36.793V37.6914H273.535V39.1514ZM285.967 37.6914V50H284.439L284.17 48.2705H284.069C283.814 48.6973 283.485 49.0566 283.081 49.3486C282.676 49.6406 282.22 49.8577 281.71 50C281.209 50.1497 280.674 50.2246 280.104 50.2246C279.131 50.2246 278.315 50.0674 277.656 49.7529C276.997 49.4385 276.5 48.9518 276.163 48.293C275.833 47.6341 275.668 46.7881 275.668 45.7549V37.6914H277.555V45.6201C277.555 46.6458 277.787 47.4132 278.251 47.9224C278.716 48.424 279.423 48.6748 280.374 48.6748C281.287 48.6748 282.014 48.5026 282.553 48.1582C283.099 47.8138 283.492 47.3084 283.732 46.6421C283.972 45.9683 284.091 45.1447 284.091 44.1714V37.6914H285.967ZM291.784 50H289.909V32.5254H291.784V50ZM297.602 50H295.726V32.5254H297.602V50ZM299.601 37.6914H301.6L304.317 44.834C304.475 45.2533 304.621 45.6576 304.755 46.0469C304.89 46.4287 305.01 46.7956 305.115 47.1475C305.22 47.4993 305.302 47.84 305.362 48.1694H305.44C305.545 47.7951 305.695 47.3047 305.89 46.6982C306.084 46.0843 306.294 45.4591 306.519 44.8228L309.09 37.6914H311.101L305.744 51.8081C305.459 52.5643 305.126 53.2231 304.744 53.7847C304.37 54.3462 303.913 54.7767 303.374 55.0762C302.835 55.3831 302.184 55.5366 301.42 55.5366C301.068 55.5366 300.757 55.5142 300.488 55.4692C300.218 55.4318 299.986 55.3869 299.792 55.3345V53.8408C299.956 53.8783 300.155 53.9119 300.387 53.9419C300.626 53.9718 300.873 53.9868 301.128 53.9868C301.592 53.9868 301.993 53.897 302.33 53.7173C302.674 53.5451 302.97 53.2905 303.217 52.9536C303.464 52.6167 303.677 52.2161 303.857 51.752L304.531 50.0225L299.601 37.6914Z" fill="white"/>
</g>
<defs>
<filter id="filter0_d_18787_5666" x="0" y="0" width="334" height="82" filterUnits="userSpaceOnUse" color-interpolation-filters="sRGB">
<feFlood flood-opacity="0" result="BackgroundImageFix"/>
<feColorMatrix in="SourceAlpha" type="matrix" values="0 0 0 0 0 0 0 0 0 0 0 0 0 0 0 0 0 0 127 0" result="hardAlpha"/>
<feOffset/>
<feGaussianBlur stdDeviation="2"/>
<feComposite in2="hardAlpha" operator="out"/>
<feColorMatrix type="matrix" values="0 0 0 0 0 0 0 0 0 0 0 0 0 0 0 0 0 0 0.15 0"/>
<feBlend mode="normal" in2="BackgroundImageFix" result="effect1_dropShadow_18787_5666"/>
<feBlend mode="normal" in="SourceGraphic" in2="effect1_dropShadow_18787_5666" result="shape"/>
</filter>
</defs>
</svg>
