<svg width="144" height="59" viewBox="0 0 144 59" fill="none" xmlns="http://www.w3.org/2000/svg">
<g filter="url(#filter0_d_156_919)">
<rect x="3.99951" y="4" width="136" height="51" rx="10" fill="white"/>
<path d="M38.1157 23.4365V32.2129C38.1157 33.1715 37.9209 34.0251 37.5312 34.7734C37.1478 35.5218 36.5664 36.1125 35.7871 36.5454C35.0078 36.9722 34.0306 37.1855 32.8555 37.1855C31.1794 37.1855 29.9022 36.731 29.0239 35.8218C28.1519 34.9126 27.7158 33.6973 27.7158 32.1758V23.4365H29.3022V32.2222C29.3022 33.3726 29.6053 34.2601 30.2114 34.8848C30.8237 35.5094 31.736 35.8218 32.9482 35.8218C33.777 35.8218 34.4543 35.6733 34.98 35.3765C35.5119 35.0734 35.9046 34.6528 36.1582 34.1147C36.418 33.5705 36.5479 32.9427 36.5479 32.2314V23.4365H38.1157ZM46.1035 26.6465C46.3076 26.6465 46.521 26.6589 46.7437 26.6836C46.9663 26.7021 47.1642 26.73 47.3374 26.7671L47.1426 28.1958C46.9756 28.1525 46.79 28.1185 46.5859 28.0938C46.3818 28.069 46.1901 28.0566 46.0107 28.0566C45.6025 28.0566 45.216 28.1401 44.8511 28.3071C44.4924 28.4679 44.1769 28.703 43.9048 29.0122C43.6326 29.3153 43.4193 29.6833 43.2646 30.1162C43.11 30.543 43.0327 31.0192 43.0327 31.5449V37H41.4834V26.832H42.7637L42.9307 28.7061H42.9956C43.2059 28.3288 43.4595 27.9855 43.7563 27.6763C44.0532 27.3608 44.3965 27.1104 44.7861 26.9248C45.182 26.7393 45.6211 26.6465 46.1035 26.6465ZM52.0967 41.5645C50.7607 41.5645 49.731 41.314 49.0073 40.813C48.2837 40.3182 47.9219 39.6224 47.9219 38.7256C47.9219 38.0885 48.1229 37.5443 48.5249 37.0928C48.9331 36.6413 49.4959 36.3413 50.2134 36.1929C49.9474 36.0692 49.7186 35.8836 49.5269 35.6362C49.3413 35.3888 49.2485 35.1043 49.2485 34.7827C49.2485 34.4116 49.3506 34.0869 49.5547 33.8086C49.765 33.5241 50.0835 33.252 50.5103 32.9922C49.9784 32.7757 49.5454 32.4108 49.2114 31.8975C48.8836 31.3779 48.7197 30.7749 48.7197 30.0884C48.7197 29.3586 48.8713 28.737 49.1743 28.2236C49.4774 27.7041 49.9165 27.3083 50.4917 27.0361C51.0669 26.764 51.7627 26.6279 52.5791 26.6279C52.7585 26.6279 52.9378 26.6372 53.1172 26.6558C53.3027 26.6681 53.479 26.6898 53.646 26.7207C53.813 26.7454 53.9583 26.7764 54.082 26.8135H57.5703V27.8062L55.6963 28.0381C55.8818 28.2793 56.0365 28.57 56.1602 28.9102C56.2839 29.2503 56.3457 29.6276 56.3457 30.042C56.3457 31.0563 56.0024 31.8634 55.3159 32.4634C54.6294 33.0571 53.6862 33.354 52.4863 33.354C52.2018 33.354 51.9111 33.3293 51.6143 33.2798C51.3112 33.4468 51.0793 33.6323 50.9185 33.8364C50.7638 34.0405 50.6865 34.2756 50.6865 34.5415C50.6865 34.7394 50.7453 34.8971 50.8628 35.0146C50.9865 35.1322 51.1628 35.2188 51.3916 35.2744C51.6204 35.3239 51.8957 35.3486 52.2173 35.3486H54.0078C55.1149 35.3486 55.9622 35.5806 56.5498 36.0444C57.1436 36.5083 57.4404 37.1855 57.4404 38.0762C57.4404 39.2018 56.9827 40.0646 56.0674 40.6646C55.152 41.2645 53.8285 41.5645 52.0967 41.5645ZM52.1431 40.3584C52.9842 40.3584 53.68 40.2718 54.2305 40.0986C54.7871 39.9316 55.2015 39.6873 55.4736 39.3657C55.752 39.0503 55.8911 38.673 55.8911 38.2339C55.8911 37.8257 55.7983 37.5164 55.6128 37.3062C55.4272 37.1021 55.1551 36.966 54.7964 36.8979C54.4377 36.8237 53.9985 36.7866 53.479 36.7866H51.7163C51.2586 36.7866 50.8597 36.8577 50.5195 37C50.1794 37.1423 49.9165 37.3525 49.731 37.6309C49.5516 37.9092 49.4619 38.2555 49.4619 38.6699C49.4619 39.2204 49.6938 39.6379 50.1577 39.9224C50.6216 40.2131 51.2834 40.3584 52.1431 40.3584ZM52.542 32.2314C53.278 32.2314 53.8315 32.0459 54.2026 31.6748C54.5737 31.3037 54.7593 30.7625 54.7593 30.0513C54.7593 29.2905 54.5706 28.7215 54.1934 28.3442C53.8161 27.9608 53.2594 27.769 52.5234 27.769C51.8184 27.769 51.2741 27.967 50.8906 28.3628C50.5133 28.7524 50.3247 29.3245 50.3247 30.0791C50.3247 30.7718 50.5164 31.3037 50.8999 31.6748C51.2834 32.0459 51.8307 32.2314 52.542 32.2314ZM63.4893 26.6465C64.3551 26.6465 65.0973 26.8382 65.7158 27.2217C66.3343 27.6051 66.8075 28.1432 67.1353 28.8359C67.4631 29.5225 67.627 30.3265 67.627 31.248V32.2036H60.604C60.6226 33.3973 60.9194 34.3065 61.4946 34.9312C62.0698 35.5558 62.88 35.8682 63.9253 35.8682C64.5685 35.8682 65.1375 35.8094 65.6323 35.6919C66.1271 35.5744 66.6405 35.4012 67.1724 35.1724V36.5269C66.659 36.7557 66.1488 36.9227 65.6416 37.0278C65.1406 37.133 64.5469 37.1855 63.8604 37.1855C62.8831 37.1855 62.0296 36.9876 61.2998 36.5918C60.5762 36.1898 60.0133 35.6022 59.6113 34.8291C59.2093 34.056 59.0083 33.1097 59.0083 31.9902C59.0083 30.8955 59.1908 29.9492 59.5557 29.1514C59.9268 28.3473 60.4463 27.7288 61.1143 27.2959C61.7884 26.863 62.5801 26.6465 63.4893 26.6465ZM63.4707 27.9082C62.6481 27.9082 61.9925 28.1772 61.5039 28.7153C61.0153 29.2534 60.7246 30.0049 60.6318 30.9697H66.0127C66.0065 30.3636 65.9106 29.8317 65.7251 29.374C65.5457 28.9102 65.2705 28.5514 64.8994 28.2979C64.5283 28.0381 64.0521 27.9082 63.4707 27.9082ZM75.0581 26.6465C76.2642 26.6465 77.1764 26.9434 77.7949 27.5371C78.4134 28.1247 78.7227 29.071 78.7227 30.376V37H77.2012V30.478C77.2012 29.6307 77.0063 28.9967 76.6167 28.5762C76.2332 28.1556 75.6426 27.9453 74.8447 27.9453C73.7191 27.9453 72.9274 28.2638 72.4697 28.9009C72.012 29.5379 71.7832 30.4626 71.7832 31.6748V37H70.2432V26.832H71.4863L71.7183 28.2979H71.8018C72.0182 27.9391 72.2935 27.6392 72.6274 27.3979C72.9614 27.1506 73.3356 26.965 73.75 26.8413C74.1644 26.7114 74.6004 26.6465 75.0581 26.6465ZM85.1797 35.9238C85.4333 35.9238 85.693 35.9022 85.959 35.8589C86.2249 35.8156 86.4414 35.763 86.6084 35.7012V36.8979C86.429 36.9784 86.1785 37.0464 85.8569 37.1021C85.5415 37.1577 85.2323 37.1855 84.9292 37.1855C84.3911 37.1855 83.9025 37.0928 83.4634 36.9072C83.0243 36.7155 82.6717 36.3939 82.4058 35.9424C82.146 35.4909 82.0161 34.8662 82.0161 34.0684V28.0381H80.5688V27.2866L82.0254 26.6836L82.6377 24.4756H83.5654V26.832H86.5435V28.0381H83.5654V34.022C83.5654 34.659 83.7108 35.1353 84.0015 35.4507C84.2983 35.7661 84.6911 35.9238 85.1797 35.9238Z" fill="black"/>
<g clip-path="url(#clip0_156_919)">
<path d="M116.904 36.7547C116.669 36.7551 116.441 36.6803 116.252 36.5412L108 30.458L99.7476 36.5412C99.6318 36.6267 99.5002 36.6887 99.3604 36.7234C99.2206 36.7582 99.0753 36.7651 98.9328 36.7437C98.7903 36.7223 98.6535 36.6732 98.53 36.599C98.4066 36.5247 98.299 36.427 98.2134 36.3112C98.1277 36.1954 98.0658 36.0639 98.031 35.9243C97.9962 35.7846 97.9893 35.6394 98.0107 35.497C98.0538 35.2095 98.2095 34.9509 98.4435 34.7781L107.348 28.2076C107.536 28.068 107.765 27.9927 108 27.9927C108.234 27.9927 108.463 28.068 108.652 28.2076L117.556 34.7781C117.742 34.915 117.88 35.1071 117.95 35.327C118.02 35.5469 118.019 35.7833 117.946 36.0025C117.874 36.2216 117.734 36.4124 117.547 36.5475C117.36 36.6826 117.135 36.7551 116.904 36.7547Z" fill="#FF3D00"/>
<path d="M116.904 31.0057C116.669 31.0061 116.441 30.9312 116.252 30.7921L108 24.709L99.7476 30.7921C99.5136 30.9649 99.2205 31.0378 98.9328 30.9947C98.6451 30.9515 98.3863 30.796 98.2134 30.5622C98.0404 30.3284 97.9675 30.0355 98.0107 29.748C98.0538 29.4605 98.2095 29.2019 98.4435 29.0291L107.348 22.4586C107.536 22.319 107.765 22.2437 108 22.2437C108.234 22.2437 108.463 22.319 108.652 22.4586L117.556 29.0291C117.742 29.166 117.88 29.3581 117.95 29.578C118.02 29.7979 118.019 30.0343 117.946 30.2534C117.874 30.4726 117.734 30.6634 117.547 30.7985C117.36 30.9336 117.135 31.0061 116.904 31.0057Z" fill="#FF3D00"/>
</g>
</g>
<defs>
<filter id="filter0_d_156_919" x="-0.000488281" y="0" width="144" height="59" filterUnits="userSpaceOnUse" color-interpolation-filters="sRGB">
<feFlood flood-opacity="0" result="BackgroundImageFix"/>
<feColorMatrix in="SourceAlpha" type="matrix" values="0 0 0 0 0 0 0 0 0 0 0 0 0 0 0 0 0 0 127 0" result="hardAlpha"/>
<feOffset/>
<feGaussianBlur stdDeviation="2"/>
<feColorMatrix type="matrix" values="0 0 0 0 0 0 0 0 0 0 0 0 0 0 0 0 0 0 0.16 0"/>
<feBlend mode="normal" in2="BackgroundImageFix" result="effect1_dropShadow_156_919"/>
<feBlend mode="normal" in="SourceGraphic" in2="effect1_dropShadow_156_919" result="shape"/>
</filter>
<clipPath id="clip0_156_919">
<rect width="20" height="14.5098" fill="white" transform="translate(97.9995 22.2451)"/>
</clipPath>
</defs>
</svg>
